G04*
G04 #@! TF.GenerationSoftware,Altium Limited,Altium Designer,24.3.1 (35)*
G04*
G04 Layer_Color=32896*
%FSLAX25Y25*%
%MOIN*%
G70*
G04*
G04 #@! TF.SameCoordinates,CBDEA9DE-FB5E-4B32-9C3F-323BEE311ABC*
G04*
G04*
G04 #@! TF.FilePolarity,Positive*
G04*
G01*
G75*
%ADD10C,0.00500*%
%ADD69C,0.02000*%
%ADD80C,0.00400*%
D10*
X48425Y208366D02*
X106890D01*
X48425Y233071D02*
X106890D01*
Y208366D02*
Y233071D01*
X48425Y208366D02*
Y233071D01*
X54527Y244685D02*
X99213D01*
X54527Y269390D02*
X99213D01*
Y244685D02*
Y269390D01*
X54527Y244685D02*
Y269390D01*
X120177Y244094D02*
X196653D01*
X120177Y268799D02*
X196653D01*
Y244094D02*
Y268799D01*
X120177Y244094D02*
Y268799D01*
X124016Y208268D02*
X193602D01*
X124016Y232972D02*
X193602D01*
Y208268D02*
Y232972D01*
X124016Y208268D02*
Y232972D01*
X115945Y149549D02*
X200984D01*
X115945Y194431D02*
X200984D01*
Y149549D02*
Y194431D01*
X115945Y149549D02*
Y194431D01*
X42520Y168504D02*
X112205D01*
X42520Y194488D02*
X112205D01*
Y168504D02*
Y194488D01*
X42520Y168504D02*
Y194488D01*
X57061Y194488D02*
X57065Y168504D01*
X87005Y194488D02*
X87008Y168504D01*
X115945Y168841D02*
X200984Y168841D01*
X115945Y162205D02*
X145472D01*
X115945Y155760D02*
X145472D01*
X128937Y188132D02*
X128942Y149549D01*
X42520Y187955D02*
X112205D01*
X42520Y181510D02*
X112205D01*
X42520Y174803D02*
X112205D01*
X115945Y175051D02*
X145473D01*
X115945Y181496D02*
X145473D01*
X145472Y194431D02*
X145478Y149549D01*
X175416Y194431D02*
X175421Y149549D01*
X115945Y188132D02*
X200984Y188132D01*
X150886Y208268D02*
Y223031D01*
X124409Y223031D02*
X193504Y223031D01*
X124016Y215256D02*
X193504Y215256D01*
X166535Y208268D02*
Y223031D01*
X180905Y208268D02*
Y223031D01*
X180020Y251083D02*
X196653D01*
X180020Y258858D02*
X196457D01*
X181102Y244094D02*
Y258858D01*
X120276D02*
X181102D01*
X68602Y244685D02*
Y259449D01*
X54528Y251673D02*
X99114D01*
X54626Y259449D02*
X99213D01*
X120177Y251083D02*
X180118D01*
X134252Y244094D02*
Y258858D01*
X149902Y244094D02*
Y258858D01*
X164272Y244094D02*
Y258858D01*
X48425Y223130D02*
X106890Y223130D01*
X48425Y215354D02*
X106791Y215354D01*
X76279Y208366D02*
Y223130D01*
X91929Y208366D02*
Y223130D01*
X163752Y199111D02*
Y196112D01*
X161752D01*
X158753Y199111D02*
X160753D01*
Y196112D01*
X158753D01*
X160753Y197612D02*
X159753D01*
X157754Y199111D02*
Y196112D01*
X156254D01*
X155754Y196612D01*
Y198611D01*
X156254Y199111D01*
X157754D01*
X154754Y196112D02*
X153255D01*
X152755Y196612D01*
X153255Y197112D01*
X154255D01*
X154754Y197612D01*
X154255Y198112D01*
X152755D01*
X85720Y193081D02*
Y190082D01*
X84221D01*
X83721Y190582D01*
Y192581D01*
X84221Y193081D01*
X85720D01*
X81222Y190082D02*
X82222D01*
X82721Y190582D01*
Y191582D01*
X82222Y192082D01*
X81222D01*
X80722Y191582D01*
Y191082D01*
X82721D01*
X79722Y190082D02*
X78223D01*
X77723Y190582D01*
X78223Y191082D01*
X79223D01*
X79722Y191582D01*
X79223Y192082D01*
X77723D01*
X76723Y190082D02*
X75724D01*
X76223D01*
Y192082D01*
X76723D01*
X73225Y189083D02*
X72725D01*
X72225Y189583D01*
Y192082D01*
X73724D01*
X74224Y191582D01*
Y190582D01*
X73724Y190082D01*
X72225D01*
X71225D02*
Y192082D01*
X69726D01*
X69226Y191582D01*
Y190082D01*
X67726Y192082D02*
X66727D01*
X66227Y191582D01*
Y190082D01*
X67726D01*
X68226Y190582D01*
X67726Y191082D01*
X66227D01*
X64727Y192581D02*
Y192082D01*
X65227D01*
X64227D01*
X64727D01*
Y190582D01*
X64227Y190082D01*
X62228D02*
X61228D01*
X60729Y190582D01*
Y191582D01*
X61228Y192082D01*
X62228D01*
X62728Y191582D01*
Y190582D01*
X62228Y190082D01*
X59729Y192082D02*
Y190082D01*
Y191082D01*
X59229Y191582D01*
X58729Y192082D01*
X58229D01*
X108524Y193263D02*
X110524D01*
Y191763D01*
X109524D01*
X110524D01*
Y190264D01*
X107525Y192263D02*
Y190764D01*
X107025Y190264D01*
X105525D01*
Y192263D01*
X104526Y190264D02*
Y192263D01*
X103026D01*
X102526Y191763D01*
Y190264D01*
X99527Y192263D02*
X101027D01*
X101526Y191763D01*
Y190764D01*
X101027Y190264D01*
X99527D01*
X98028Y192763D02*
Y192263D01*
X98527D01*
X97528D01*
X98028D01*
Y190764D01*
X97528Y190264D01*
X96028D02*
X95029D01*
X95529D01*
Y192263D01*
X96028D01*
X93029Y190264D02*
X92030D01*
X91530Y190764D01*
Y191763D01*
X92030Y192263D01*
X93029D01*
X93529Y191763D01*
Y190764D01*
X93029Y190264D01*
X90530D02*
Y192263D01*
X89031D01*
X88531Y191763D01*
Y190264D01*
X53013Y192369D02*
X53512Y192869D01*
X54512D01*
X55012Y192369D01*
Y190370D01*
X54512Y189870D01*
X53512D01*
X53013Y190370D01*
Y191370D01*
X54012D01*
X52013Y189870D02*
Y192869D01*
X50513D01*
X50013Y192369D01*
Y191370D01*
X50513Y190870D01*
X52013D01*
X49014Y192869D02*
X48014D01*
X48514D01*
Y189870D01*
X49014D01*
X48014D01*
X45015Y192869D02*
X46015D01*
X46515Y192369D01*
Y190370D01*
X46015Y189870D01*
X45015D01*
X44515Y190370D01*
Y192369D01*
X45015Y192869D01*
X94567Y195776D02*
Y198775D01*
X93067D01*
X92568Y198275D01*
Y197275D01*
X93067Y196775D01*
X94567D01*
X91568Y198775D02*
Y196275D01*
X91068Y195776D01*
X90068D01*
X89569Y196275D01*
Y198775D01*
X86570Y198275D02*
X87069Y198775D01*
X88069D01*
X88569Y198275D01*
Y197775D01*
X88069Y197275D01*
X87069D01*
X86570Y196775D01*
Y196275D01*
X87069Y195776D01*
X88069D01*
X88569Y196275D01*
X85570Y198775D02*
Y195776D01*
Y197275D01*
X83570D01*
Y198775D01*
Y195776D01*
X79572Y198775D02*
Y195776D01*
X78072D01*
X77573Y196275D01*
Y196775D01*
X78072Y197275D01*
X79572D01*
X78072D01*
X77573Y197775D01*
Y198275D01*
X78072Y198775D01*
X79572D01*
X76573D02*
Y196275D01*
X76073Y195776D01*
X75073D01*
X74573Y196275D01*
Y198775D01*
X73574D02*
X71574D01*
X72574D01*
Y195776D01*
X70575Y198775D02*
X68575D01*
X69575D01*
Y195776D01*
X66076Y198775D02*
X67076D01*
X67576Y198275D01*
Y196275D01*
X67076Y195776D01*
X66076D01*
X65576Y196275D01*
Y198275D01*
X66076Y198775D01*
X64577Y195776D02*
Y198775D01*
X62577Y195776D01*
Y198775D01*
X59578Y198275D02*
X60078Y198775D01*
X61078D01*
X61578Y198275D01*
Y197775D01*
X61078Y197275D01*
X60078D01*
X59578Y196775D01*
Y196275D01*
X60078Y195776D01*
X61078D01*
X61578Y196275D01*
X165859Y179936D02*
Y176937D01*
X164359D01*
X163860Y177436D01*
Y179436D01*
X164359Y179936D01*
X165859D01*
X161360Y176937D02*
Y179936D01*
X162860Y178436D01*
X160861D01*
X159861Y179436D02*
X159361Y179936D01*
X158361D01*
X157862Y179436D01*
Y177436D01*
X158361Y176937D01*
X159361D01*
X159861Y177436D01*
Y179436D01*
X156862D02*
X156362Y179936D01*
X155362D01*
X154862Y179436D01*
Y177436D01*
X155362Y176937D01*
X156362D01*
X156862Y177436D01*
Y179436D01*
X165359Y161038D02*
Y158039D01*
X163860D01*
X163360Y158539D01*
Y160538D01*
X163860Y161038D01*
X165359D01*
X160861Y158039D02*
Y161038D01*
X162360Y159538D01*
X160361D01*
X159361Y160538D02*
X158861Y161038D01*
X157862D01*
X157362Y160538D01*
Y158539D01*
X157862Y158039D01*
X158861D01*
X159361Y158539D01*
Y160538D01*
X156362Y158039D02*
X155362D01*
X155862D01*
Y161038D01*
X156362Y160538D01*
X197660Y161422D02*
X196660D01*
X197160D01*
Y158423D01*
X197660D01*
X196660D01*
X195161Y157923D02*
X193161D01*
X190162Y160922D02*
X190662Y161422D01*
X191662D01*
X192162Y160922D01*
Y160422D01*
X191662Y159923D01*
X190662D01*
X190162Y159423D01*
Y158923D01*
X190662Y158423D01*
X191662D01*
X192162Y158923D01*
X189163Y158423D02*
Y161422D01*
X187663D01*
X187163Y160922D01*
Y159923D01*
X187663Y159423D01*
X189163D01*
X184164Y161422D02*
X186164D01*
Y158423D01*
X184164D01*
X186164Y159923D02*
X185164D01*
X181165Y161422D02*
X183165D01*
Y158423D01*
X181165D01*
X183165Y159923D02*
X182165D01*
X180166Y161422D02*
Y158423D01*
X178666D01*
X178166Y158923D01*
Y160922D01*
X178666Y161422D01*
X180166D01*
X126272Y164033D02*
Y167033D01*
X124772D01*
X124272Y166533D01*
Y165533D01*
X124772Y165033D01*
X126272D01*
X123273Y164033D02*
Y166033D01*
X122273Y167033D01*
X121273Y166033D01*
Y164033D01*
Y165533D01*
X123273D01*
X120274Y167033D02*
X118274D01*
Y166533D01*
X120274Y164533D01*
Y164033D01*
X126272Y157589D02*
Y160588D01*
X124772D01*
X124272Y160088D01*
Y159088D01*
X124772Y158588D01*
X126272D01*
X123273Y160588D02*
Y157589D01*
X121773D01*
X121273Y158088D01*
Y158588D01*
X121773Y159088D01*
X123273D01*
X121773D01*
X121273Y159588D01*
Y160088D01*
X121773Y160588D01*
X123273D01*
X120274Y160088D02*
X119774Y160588D01*
X118774D01*
X118274Y160088D01*
Y158088D01*
X118774Y157589D01*
X119774D01*
X120274Y158088D01*
Y160088D01*
X125772Y151144D02*
Y154143D01*
X124272D01*
X123773Y153643D01*
Y152643D01*
X124272Y152143D01*
X125772D01*
X122773Y154143D02*
Y151144D01*
X121273D01*
X120773Y151644D01*
Y152143D01*
X121273Y152643D01*
X122773D01*
X121273D01*
X120773Y153143D01*
Y153643D01*
X121273Y154143D01*
X122773D01*
X119774Y151144D02*
X118774D01*
X119274D01*
Y154143D01*
X119774Y153643D01*
X142710Y154143D02*
Y151144D01*
X141210D01*
X140710Y151644D01*
Y152143D01*
X141210Y152643D01*
X142710D01*
X141210D01*
X140710Y153143D01*
Y153643D01*
X141210Y154143D01*
X142710D01*
X139711D02*
Y151144D01*
X137712D01*
X136712Y154143D02*
Y151644D01*
X136212Y151144D01*
X135212D01*
X134713Y151644D01*
Y154143D01*
X131713D02*
X133713D01*
Y151144D01*
X131713D01*
X133713Y152643D02*
X132713D01*
X142210Y160088D02*
X142710Y160588D01*
X143710D01*
X144209Y160088D01*
Y158088D01*
X143710Y157589D01*
X142710D01*
X142210Y158088D01*
Y159088D01*
X143210D01*
X141210Y157589D02*
Y160588D01*
X139711D01*
X139211Y160088D01*
Y159088D01*
X139711Y158588D01*
X141210D01*
X140211D02*
X139211Y157589D01*
X136212Y160588D02*
X138211D01*
Y157589D01*
X136212D01*
X138211Y159088D02*
X137212D01*
X133213Y160588D02*
X135212D01*
Y157589D01*
X133213D01*
X135212Y159088D02*
X134213D01*
X132213Y157589D02*
Y160588D01*
X130214Y157589D01*
Y160588D01*
X141210Y164033D02*
Y167033D01*
X139711D01*
X139211Y166533D01*
Y165533D01*
X139711Y165033D01*
X141210D01*
X140211D02*
X139211Y164033D01*
X136212Y167033D02*
X138211D01*
Y164033D01*
X136212D01*
X138211Y165533D02*
X137212D01*
X135212Y167033D02*
Y164033D01*
X133713D01*
X133213Y164533D01*
Y166533D01*
X133713Y167033D01*
X135212D01*
X76973Y185838D02*
X77473Y186338D01*
X78473D01*
X78973Y185838D01*
Y185338D01*
X78473Y184838D01*
X77473D01*
X76973Y184338D01*
Y183838D01*
X77473Y183339D01*
X78473D01*
X78973Y183838D01*
X75974Y186338D02*
Y183339D01*
X74974Y184338D01*
X73974Y183339D01*
Y186338D01*
X71475Y183339D02*
Y186338D01*
X72975Y184838D01*
X70975D01*
X69976Y185838D02*
X69476Y186338D01*
X68476D01*
X67976Y185838D01*
Y183838D01*
X68476Y183339D01*
X69476D01*
X69976Y183838D01*
Y185838D01*
X66976D02*
X66477Y186338D01*
X65477D01*
X64977Y185838D01*
Y183838D01*
X65477Y183339D01*
X66477D01*
X66976Y183838D01*
Y185838D01*
X102239Y185944D02*
Y183445D01*
X101739Y182945D01*
X100739D01*
X100239Y183445D01*
Y185944D01*
X99240Y182945D02*
Y185944D01*
X97740D01*
X97240Y185444D01*
Y184444D01*
X97740Y183945D01*
X99240D01*
X55012Y183339D02*
Y186338D01*
X53512D01*
X53013Y185838D01*
Y184838D01*
X53512Y184338D01*
X55012D01*
X52013Y186338D02*
Y183339D01*
X50513D01*
X50013Y183838D01*
Y184338D01*
X50513Y184838D01*
X52013D01*
X50513D01*
X50013Y185338D01*
Y185838D01*
X50513Y186338D01*
X52013D01*
X49014Y183339D02*
X48014D01*
X48514D01*
Y186338D01*
X49014Y185838D01*
X45015Y183339D02*
Y186338D01*
X46515Y184838D01*
X44515D01*
X55012Y176632D02*
Y179631D01*
X53512D01*
X53013Y179131D01*
Y178131D01*
X53512Y177632D01*
X55012D01*
X52013Y179631D02*
Y176632D01*
X50513D01*
X50013Y177132D01*
Y177632D01*
X50513Y178131D01*
X52013D01*
X50513D01*
X50013Y178631D01*
Y179131D01*
X50513Y179631D01*
X52013D01*
X49014Y176632D02*
X48014D01*
X48514D01*
Y179631D01*
X49014Y179131D01*
X46515D02*
X46015Y179631D01*
X45015D01*
X44515Y179131D01*
Y178631D01*
X45015Y178131D01*
X45515D01*
X45015D01*
X44515Y177632D01*
Y177132D01*
X45015Y176632D01*
X46015D01*
X46515Y177132D01*
X108237Y179483D02*
X109236D01*
X109736Y178983D01*
Y176984D01*
X109236Y176484D01*
X108237D01*
X107737Y176984D01*
Y178983D01*
X108237Y179483D01*
X106737D02*
Y176484D01*
Y177484D01*
X104738Y179483D01*
X106237Y177984D01*
X104738Y176484D01*
X103738D02*
X101739Y178484D01*
X100739Y176484D02*
Y179483D01*
X99739Y178484D01*
X98740Y179483D01*
Y176484D01*
X96241Y179483D02*
X97240D01*
X97740Y178983D01*
Y176984D01*
X97240Y176484D01*
X96241D01*
X95741Y176984D01*
Y178983D01*
X96241Y179483D01*
X94741D02*
Y176484D01*
X93242D01*
X92742Y176984D01*
Y178983D01*
X93242Y179483D01*
X94741D01*
X89743D02*
X91742D01*
Y176484D01*
X89743D01*
X91742Y177984D02*
X90742D01*
X76473Y179131D02*
X76973Y179631D01*
X77973D01*
X78473Y179131D01*
Y178631D01*
X77973Y178131D01*
X76973D01*
X76473Y177632D01*
Y177132D01*
X76973Y176632D01*
X77973D01*
X78473Y177132D01*
X75474Y179631D02*
Y176632D01*
X74474Y177632D01*
X73474Y176632D01*
Y179631D01*
X70975Y176632D02*
Y179631D01*
X72475Y178131D01*
X70475D01*
X69476Y179131D02*
X68976Y179631D01*
X67976D01*
X67476Y179131D01*
Y177132D01*
X67976Y176632D01*
X68976D01*
X69476Y177132D01*
Y179131D01*
X66477Y176632D02*
X65477D01*
X65977D01*
Y179631D01*
X66477Y179131D01*
X55012Y170333D02*
Y173332D01*
X53512D01*
X53013Y172832D01*
Y171832D01*
X53512Y171332D01*
X55012D01*
X52013Y173332D02*
Y170333D01*
X50513D01*
X50013Y170833D01*
Y171332D01*
X50513Y171832D01*
X52013D01*
X50513D01*
X50013Y172332D01*
Y172832D01*
X50513Y173332D01*
X52013D01*
X49014Y170333D02*
X48014D01*
X48514D01*
Y173332D01*
X49014Y172832D01*
X44515Y170333D02*
X46515D01*
X44515Y172332D01*
Y172832D01*
X45015Y173332D01*
X46015D01*
X46515Y172832D01*
X105238Y172938D02*
Y169939D01*
X103738D01*
X103238Y170439D01*
Y172438D01*
X103738Y172938D01*
X105238D01*
X100739D02*
X101739D01*
X102239Y172438D01*
Y170439D01*
X101739Y169939D01*
X100739D01*
X100239Y170439D01*
Y172438D01*
X100739Y172938D01*
X99240D02*
Y169939D01*
X98240Y170939D01*
X97240Y169939D01*
Y172938D01*
X96241Y169939D02*
Y172938D01*
X94241Y169939D01*
Y172938D01*
X76973Y172832D02*
X77473Y173332D01*
X78473D01*
X78973Y172832D01*
Y172332D01*
X78473Y171832D01*
X77473D01*
X76973Y171332D01*
Y170833D01*
X77473Y170333D01*
X78473D01*
X78973Y170833D01*
X75974Y173332D02*
Y170333D01*
X74974Y171332D01*
X73974Y170333D01*
Y173332D01*
X71475Y170333D02*
Y173332D01*
X72975Y171832D01*
X70975D01*
X69976Y172832D02*
X69476Y173332D01*
X68476D01*
X67976Y172832D01*
Y170833D01*
X68476Y170333D01*
X69476D01*
X69976Y170833D01*
Y172832D01*
X64977Y170333D02*
X66976D01*
X64977Y172332D01*
Y172832D01*
X65477Y173332D01*
X66477D01*
X66976Y172832D01*
X141210Y183325D02*
Y186324D01*
X139711D01*
X139211Y185824D01*
Y184824D01*
X139711Y184325D01*
X141210D01*
X140211D02*
X139211Y183325D01*
X136212Y186324D02*
X138211D01*
Y183325D01*
X136212D01*
X138211Y184824D02*
X137212D01*
X135212Y186324D02*
Y183325D01*
X133713D01*
X133213Y183825D01*
Y185824D01*
X133713Y186324D01*
X135212D01*
X142210Y179379D02*
X142710Y179879D01*
X143710D01*
X144209Y179379D01*
Y177380D01*
X143710Y176880D01*
X142710D01*
X142210Y177380D01*
Y178379D01*
X143210D01*
X141210Y176880D02*
Y179879D01*
X139711D01*
X139211Y179379D01*
Y178379D01*
X139711Y177880D01*
X141210D01*
X140211D02*
X139211Y176880D01*
X136212Y179879D02*
X138211D01*
Y176880D01*
X136212D01*
X138211Y178379D02*
X137212D01*
X133213Y179879D02*
X135212D01*
Y176880D01*
X133213D01*
X135212Y178379D02*
X134213D01*
X132213Y176880D02*
Y179879D01*
X130214Y176880D01*
Y179879D01*
X142710Y173434D02*
Y170435D01*
X141210D01*
X140710Y170935D01*
Y171435D01*
X141210Y171935D01*
X142710D01*
X141210D01*
X140710Y172434D01*
Y172934D01*
X141210Y173434D01*
X142710D01*
X139711D02*
Y170435D01*
X137712D01*
X136712Y173434D02*
Y170935D01*
X136212Y170435D01*
X135212D01*
X134713Y170935D01*
Y173434D01*
X131713D02*
X133713D01*
Y170435D01*
X131713D01*
X133713Y171935D02*
X132713D01*
X127021Y170435D02*
Y173434D01*
X125522D01*
X125022Y172934D01*
Y171935D01*
X125522Y171435D01*
X127021D01*
X124022Y173434D02*
Y170435D01*
X122523D01*
X122023Y170935D01*
Y171435D01*
X122523Y171935D01*
X124022D01*
X122523D01*
X122023Y172434D01*
Y172934D01*
X122523Y173434D01*
X124022D01*
X121023Y170435D02*
X120024D01*
X120524D01*
Y173434D01*
X121023Y172934D01*
X118524Y170435D02*
X117525D01*
X118024D01*
Y173434D01*
X118524Y172934D01*
X127521Y176880D02*
Y179879D01*
X126022D01*
X125522Y179379D01*
Y178379D01*
X126022Y177880D01*
X127521D01*
X124522Y179879D02*
Y176880D01*
X123023D01*
X122523Y177380D01*
Y177880D01*
X123023Y178379D01*
X124522D01*
X123023D01*
X122523Y178879D01*
Y179379D01*
X123023Y179879D01*
X124522D01*
X121523Y176880D02*
X120524D01*
X121023D01*
Y179879D01*
X121523Y179379D01*
X119024D02*
X118524Y179879D01*
X117525D01*
X117025Y179379D01*
Y177380D01*
X117525Y176880D01*
X118524D01*
X119024Y177380D01*
Y179379D01*
X126272Y183571D02*
Y186570D01*
X124772D01*
X124272Y186070D01*
Y185070D01*
X124772Y184571D01*
X126272D01*
X123273Y186570D02*
Y183571D01*
X121773D01*
X121273Y184071D01*
Y184571D01*
X121773Y185070D01*
X123273D01*
X121773D01*
X121273Y185570D01*
Y186070D01*
X121773Y186570D01*
X123273D01*
X118274Y183571D02*
X120274D01*
X118274Y185570D01*
Y186070D01*
X118774Y186570D01*
X119774D01*
X120274Y186070D01*
X196160Y180320D02*
X195161D01*
X195660D01*
Y177321D01*
X196160D01*
X195161D01*
X193661Y176821D02*
X191662D01*
X190662Y180320D02*
X188663D01*
X189662D01*
Y177321D01*
X185664Y180320D02*
X187663D01*
Y177321D01*
X185664D01*
X187663Y178820D02*
X186663D01*
X184664Y177321D02*
Y180320D01*
X183664Y179320D01*
X182665Y180320D01*
Y177321D01*
X181665D02*
Y180320D01*
X180166D01*
X179666Y179820D01*
Y178820D01*
X180166Y178320D01*
X181665D01*
X132737Y192706D02*
X133237Y193206D01*
X134236D01*
X134736Y192706D01*
Y190707D01*
X134236Y190207D01*
X133237D01*
X132737Y190707D01*
Y191706D01*
X133737D01*
X131737Y190207D02*
Y193206D01*
X130238D01*
X129738Y192706D01*
Y191706D01*
X130238Y191206D01*
X131737D01*
X128738Y193206D02*
X127738D01*
X128238D01*
Y190207D01*
X128738D01*
X127738D01*
X124739Y193206D02*
X125739D01*
X126239Y192706D01*
Y190707D01*
X125739Y190207D01*
X124739D01*
X124240Y190707D01*
Y192706D01*
X124739Y193206D01*
X196910D02*
X198909D01*
Y191706D01*
X197910D01*
X198909D01*
Y190207D01*
X195910Y192206D02*
Y190707D01*
X195411Y190207D01*
X193911D01*
Y192206D01*
X192911Y190207D02*
Y192206D01*
X191412D01*
X190912Y191706D01*
Y190207D01*
X187913Y192206D02*
X189412D01*
X189912Y191706D01*
Y190707D01*
X189412Y190207D01*
X187913D01*
X186414Y192706D02*
Y192206D01*
X186913D01*
X185914D01*
X186414D01*
Y190707D01*
X185914Y190207D01*
X184414D02*
X183414D01*
X183914D01*
Y192206D01*
X184414D01*
X181415Y190207D02*
X180415D01*
X179916Y190707D01*
Y191706D01*
X180415Y192206D01*
X181415D01*
X181915Y191706D01*
Y190707D01*
X181415Y190207D01*
X178916D02*
Y192206D01*
X177416D01*
X176917Y191706D01*
Y190207D01*
X174106Y193024D02*
Y190025D01*
X172607D01*
X172107Y190525D01*
Y192525D01*
X172607Y193024D01*
X174106D01*
X169608Y190025D02*
X170607D01*
X171107Y190525D01*
Y191525D01*
X170607Y192025D01*
X169608D01*
X169108Y191525D01*
Y191025D01*
X171107D01*
X168108Y190025D02*
X166609D01*
X166109Y190525D01*
X166609Y191025D01*
X167608D01*
X168108Y191525D01*
X167608Y192025D01*
X166109D01*
X165109Y190025D02*
X164110D01*
X164609D01*
Y192025D01*
X165109D01*
X161610Y189026D02*
X161110D01*
X160611Y189525D01*
Y192025D01*
X162110D01*
X162610Y191525D01*
Y190525D01*
X162110Y190025D01*
X160611D01*
X159611D02*
Y192025D01*
X158112D01*
X157612Y191525D01*
Y190025D01*
X156112Y192025D02*
X155112D01*
X154613Y191525D01*
Y190025D01*
X156112D01*
X156612Y190525D01*
X156112Y191025D01*
X154613D01*
X153113Y192525D02*
Y192025D01*
X153613D01*
X152613D01*
X153113D01*
Y190525D01*
X152613Y190025D01*
X150614D02*
X149614D01*
X149114Y190525D01*
Y191525D01*
X149614Y192025D01*
X150614D01*
X151114Y191525D01*
Y190525D01*
X150614Y190025D01*
X148115Y192025D02*
Y190025D01*
Y191025D01*
X147615Y191525D01*
X147115Y192025D01*
X146615D01*
X146713Y213342D02*
X148713D01*
Y211842D01*
X147713Y212342D01*
X147213D01*
X146713Y211842D01*
Y210842D01*
X147213Y210343D01*
X148213D01*
X148713Y210842D01*
X145714Y213342D02*
Y211342D01*
X144714Y210343D01*
X143714Y211342D01*
Y213342D01*
X139716Y210343D02*
X137716Y212342D01*
X133717Y212842D02*
X133218Y213342D01*
X132218D01*
X131718Y212842D01*
Y212342D01*
X132218Y211842D01*
X132718D01*
X132218D01*
X131718Y211342D01*
Y210842D01*
X132218Y210343D01*
X133218D01*
X133717Y210842D01*
X130718Y213342D02*
Y211342D01*
X129719Y210343D01*
X128719Y211342D01*
Y213342D01*
X127719Y212842D02*
X127219Y213342D01*
X126220D01*
X125720Y212842D01*
Y212342D01*
X126220Y211842D01*
X126720D01*
X126220D01*
X125720Y211342D01*
Y210842D01*
X126220Y210343D01*
X127219D01*
X127719Y210842D01*
X141215Y220724D02*
Y218724D01*
X140215Y217724D01*
X139216Y218724D01*
Y220724D01*
X136217Y220224D02*
X136716Y220724D01*
X137716D01*
X138216Y220224D01*
Y218224D01*
X137716Y217724D01*
X136716D01*
X136217Y218224D01*
X133218Y220224D02*
X133717Y220724D01*
X134717D01*
X135217Y220224D01*
Y218224D01*
X134717Y217724D01*
X133717D01*
X133218Y218224D01*
X71910Y213342D02*
X73909D01*
Y211842D01*
X72910Y212342D01*
X72410D01*
X71910Y211842D01*
Y210842D01*
X72410Y210343D01*
X73410D01*
X73909Y210842D01*
X70910Y213342D02*
Y211342D01*
X69911Y210343D01*
X68911Y211342D01*
Y213342D01*
X64912Y210343D02*
X62913Y212342D01*
X58914Y212842D02*
X58414Y213342D01*
X57415D01*
X56915Y212842D01*
Y212342D01*
X57415Y211842D01*
X57915D01*
X57415D01*
X56915Y211342D01*
Y210842D01*
X57415Y210343D01*
X58414D01*
X58914Y210842D01*
X55915Y213342D02*
Y211342D01*
X54916Y210343D01*
X53916Y211342D01*
Y213342D01*
X52916Y212842D02*
X52416Y213342D01*
X51417D01*
X50917Y212842D01*
Y212342D01*
X51417Y211842D01*
X51916D01*
X51417D01*
X50917Y211342D01*
Y210842D01*
X51417Y210343D01*
X52416D01*
X52916Y210842D01*
X177816Y256149D02*
X178315Y256649D01*
X179315D01*
X179815Y256149D01*
Y255649D01*
X179315Y255149D01*
X178315D01*
X177816Y254649D01*
Y254150D01*
X178315Y253650D01*
X179315D01*
X179815Y254150D01*
X176816Y256649D02*
Y253650D01*
X175816Y254649D01*
X174817Y253650D01*
Y256649D01*
X173817D02*
Y253650D01*
X172317D01*
X171818Y254150D01*
Y256149D01*
X172317Y256649D01*
X173817D01*
X170818D02*
Y253650D01*
X168818D01*
X167819Y256649D02*
Y253650D01*
Y254649D01*
X165820Y256649D01*
X167319Y255149D01*
X165820Y253650D01*
X97138Y265810D02*
Y262811D01*
X95138D01*
X92639Y265810D02*
X93639D01*
X94139Y265310D01*
Y263311D01*
X93639Y262811D01*
X92639D01*
X92139Y263311D01*
Y265310D01*
X92639Y265810D01*
X91140Y262811D02*
Y264810D01*
X90140Y265810D01*
X89140Y264810D01*
Y262811D01*
Y264310D01*
X91140D01*
X88141Y265810D02*
Y262811D01*
X86641D01*
X86141Y263311D01*
Y265310D01*
X86641Y265810D01*
X88141D01*
X81965Y262811D02*
X82965Y263811D01*
Y264810D01*
X81965Y265810D01*
X80465D02*
X79466D01*
X79966D01*
Y262811D01*
X80465D01*
X79466D01*
X77966D02*
X75967Y264810D01*
X73468Y265810D02*
X74467D01*
X74967Y265310D01*
Y263311D01*
X74467Y262811D01*
X73468D01*
X72968Y263311D01*
Y265310D01*
X73468Y265810D01*
X71968Y263811D02*
X69969D01*
X71968Y264810D02*
X69969D01*
X68969Y262811D02*
Y265810D01*
X67470D01*
X66970Y265310D01*
Y264310D01*
X67470Y263811D01*
X68969D01*
X65970Y262811D02*
Y264810D01*
X64970Y265810D01*
X63971Y264810D01*
Y262811D01*
Y264310D01*
X65970D01*
X62971Y262811D02*
X61971D01*
X62471D01*
Y265810D01*
X62971Y265310D01*
X58473Y262811D02*
X60472D01*
X58473Y264810D01*
Y265310D01*
X58972Y265810D01*
X59972D01*
X60472Y265310D01*
X57473Y262811D02*
X56473Y263811D01*
Y264810D01*
X57473Y265810D01*
X6543Y112342D02*
X7042Y111842D01*
Y110842D01*
X6543Y110343D01*
X4543D01*
X4043Y110842D01*
Y111842D01*
X4543Y112342D01*
X5543D01*
Y111342D01*
X6043Y113342D02*
X4543D01*
X4043Y113841D01*
Y115341D01*
X6043D01*
X4043Y116341D02*
Y117840D01*
X4543Y118340D01*
X5043Y117840D01*
Y116840D01*
X5543Y116341D01*
X6043Y116840D01*
Y118340D01*
X6543Y119840D02*
X6043D01*
Y119340D01*
Y120339D01*
Y119840D01*
X4543D01*
X4043Y120339D01*
X6043Y122339D02*
Y123338D01*
X5543Y123838D01*
X4043D01*
Y122339D01*
X4543Y121839D01*
X5043Y122339D01*
Y123838D01*
X6043Y124838D02*
X4043Y125838D01*
X6043Y126837D01*
X4043Y128337D02*
Y129336D01*
X4543Y129836D01*
X5543D01*
X6043Y129336D01*
Y128337D01*
X5543Y127837D01*
X4543D01*
X4043Y128337D01*
Y133835D02*
X6043D01*
X7042Y134835D01*
X6043Y135834D01*
X4043D01*
X5543D01*
Y133835D01*
X4043Y136834D02*
X4543D01*
Y137334D01*
X4043D01*
Y136834D01*
Y142332D02*
X7042D01*
Y143832D01*
X6543Y144332D01*
X5543D01*
X5043Y143832D01*
Y142332D01*
X4043Y145331D02*
Y146331D01*
Y145831D01*
X6043D01*
Y145331D01*
X4043Y147830D02*
Y149330D01*
X4543Y149830D01*
X5043Y149330D01*
Y148330D01*
X5543Y147830D01*
X6043Y148330D01*
Y149830D01*
X4043Y150829D02*
Y152329D01*
X4543Y152829D01*
X5043Y152329D01*
Y151329D01*
X5543Y150829D01*
X6043Y151329D01*
Y152829D01*
X4043Y154328D02*
Y155328D01*
X4543Y155828D01*
X5543D01*
X6043Y155328D01*
Y154328D01*
X5543Y153829D01*
X4543D01*
X4043Y154328D01*
X11585Y112736D02*
Y110736D01*
X8586D01*
Y112736D01*
X10086Y110736D02*
Y111736D01*
X11585Y115735D02*
X8586D01*
Y114235D01*
X9086Y113735D01*
X10086D01*
X10586Y114235D01*
Y115735D01*
Y116734D02*
X9086D01*
X8586Y117234D01*
X9086Y117734D01*
X8586Y118234D01*
X9086Y118734D01*
X10586D01*
Y120233D02*
Y121233D01*
X10086Y121733D01*
X8586D01*
Y120233D01*
X9086Y119733D01*
X9586Y120233D01*
Y121733D01*
X10586Y122732D02*
X8586D01*
X9586D01*
X10086Y123232D01*
X10586Y123732D01*
Y124232D01*
X11585Y127731D02*
X8586D01*
Y126231D01*
X9086Y125731D01*
X10086D01*
X10586Y126231D01*
Y127731D01*
X11585Y136728D02*
Y134729D01*
X10086D01*
Y135728D01*
Y134729D01*
X8586D01*
Y137727D02*
X9086D01*
Y138227D01*
X8586D01*
Y137727D01*
X11085Y145225D02*
X11585Y144725D01*
Y143726D01*
X11085Y143226D01*
X9086D01*
X8586Y143726D01*
Y144725D01*
X9086Y145225D01*
X10086D01*
Y144225D01*
X8586Y146725D02*
Y147724D01*
X9086Y148224D01*
X10086D01*
X10586Y147724D01*
Y146725D01*
X10086Y146225D01*
X9086D01*
X8586Y146725D01*
X10586Y149224D02*
X9086D01*
X8586Y149724D01*
Y151223D01*
X8087D01*
X7587Y150723D01*
Y150224D01*
X8586Y151223D02*
X10586D01*
X8586Y153722D02*
Y152723D01*
X9086Y152223D01*
X10086D01*
X10586Y152723D01*
Y153722D01*
X10086Y154222D01*
X9586D01*
Y152223D01*
X8586Y155222D02*
X10586D01*
Y156721D01*
X10086Y157221D01*
X8586D01*
Y159720D02*
Y158721D01*
X9086Y158221D01*
X10086D01*
X10586Y158721D01*
Y159720D01*
X10086Y160220D01*
X9586D01*
Y158221D01*
X10586Y163219D02*
Y161720D01*
X10086Y161220D01*
X9086D01*
X8586Y161720D01*
Y163219D01*
X11585Y164219D02*
X8586D01*
X10086D01*
X10586Y164719D01*
Y165718D01*
X10086Y166218D01*
X8586D01*
Y168718D02*
Y167718D01*
X9086Y167218D01*
X10086D01*
X10586Y167718D01*
Y168718D01*
X10086Y169217D01*
X9586D01*
Y167218D01*
X161252Y237751D02*
X162252D01*
X161752D01*
Y235252D01*
X162252Y234752D01*
X162752D01*
X163252Y235252D01*
X158753Y234752D02*
Y237751D01*
X160253Y236251D01*
X158253D01*
X157254Y237251D02*
X156754Y237751D01*
X155754D01*
X155254Y237251D01*
Y235252D01*
X155754Y234752D01*
X156754D01*
X157254Y235252D01*
Y237251D01*
X154255Y234752D02*
X153255D01*
X153755D01*
Y237751D01*
X154255Y237251D01*
X161379Y220224D02*
X161878Y220724D01*
X162878D01*
X163378Y220224D01*
Y218224D01*
X162878Y217724D01*
X161878D01*
X161379Y218224D01*
Y219224D01*
X162378D01*
X160379Y217724D02*
Y220724D01*
X158380Y217724D01*
Y220724D01*
X157380D02*
Y217724D01*
X155880D01*
X155380Y218224D01*
Y220224D01*
X155880Y220724D01*
X157380D01*
X185495Y229196D02*
X185994Y229696D01*
X186994D01*
X187494Y229196D01*
Y228696D01*
X186994Y228196D01*
X185994D01*
X185495Y227696D01*
Y227196D01*
X185994Y226696D01*
X186994D01*
X187494Y227196D01*
X184495Y225697D02*
Y228696D01*
X182995D01*
X182496Y228196D01*
Y227196D01*
X182995Y226696D01*
X184495D01*
X179996D02*
X180996D01*
X181496Y227196D01*
Y228196D01*
X180996Y228696D01*
X179996D01*
X179497Y228196D01*
Y227696D01*
X181496D01*
X176997Y226696D02*
X177997D01*
X178497Y227196D01*
Y228196D01*
X177997Y228696D01*
X176997D01*
X176497Y228196D01*
Y227696D01*
X178497D01*
X173498Y229696D02*
Y226696D01*
X174998D01*
X175498Y227196D01*
Y228196D01*
X174998Y228696D01*
X173498D01*
X167500Y229696D02*
X169500D01*
Y226696D01*
X167500D01*
X169500Y228196D02*
X168500D01*
X166501Y226696D02*
Y228696D01*
X165001D01*
X164501Y228196D01*
Y226696D01*
X161502Y228696D02*
X163002D01*
X163502Y228196D01*
Y227196D01*
X163002Y226696D01*
X161502D01*
X160003D02*
X159003D01*
X158503Y227196D01*
Y228196D01*
X159003Y228696D01*
X160003D01*
X160503Y228196D01*
Y227196D01*
X160003Y226696D01*
X155504Y229696D02*
Y226696D01*
X157004D01*
X157504Y227196D01*
Y228196D01*
X157004Y228696D01*
X155504D01*
X153005Y226696D02*
X154005D01*
X154505Y227196D01*
Y228196D01*
X154005Y228696D01*
X153005D01*
X152505Y228196D01*
Y227696D01*
X154505D01*
X151506Y228696D02*
Y226696D01*
Y227696D01*
X151006Y228196D01*
X150506Y228696D01*
X150006D01*
X145508Y226696D02*
Y229696D01*
X144508Y228696D01*
X143508Y229696D01*
Y226696D01*
X142009D02*
X141009D01*
X140509Y227196D01*
Y228196D01*
X141009Y228696D01*
X142009D01*
X142508Y228196D01*
Y227196D01*
X142009Y226696D01*
X137510Y229696D02*
Y226696D01*
X139010D01*
X139509Y227196D01*
Y228196D01*
X139010Y228696D01*
X137510D01*
X136510D02*
Y227196D01*
X136011Y226696D01*
X134511D01*
Y228696D01*
X133511Y226696D02*
X132512D01*
X133012D01*
Y229696D01*
X133511D01*
X129513Y226696D02*
X130512D01*
X131012Y227196D01*
Y228196D01*
X130512Y228696D01*
X129513D01*
X129013Y228196D01*
Y227696D01*
X131012D01*
X191528Y210343D02*
Y213342D01*
X190028D01*
X189528Y212842D01*
Y211842D01*
X190028Y211342D01*
X191528D01*
X188529Y210343D02*
Y212342D01*
X187529Y213342D01*
X186529Y212342D01*
Y210343D01*
Y211842D01*
X188529D01*
X185529Y212842D02*
X185030Y213342D01*
X184030D01*
X183530Y212842D01*
Y212342D01*
X184030Y211842D01*
X184530D01*
X184030D01*
X183530Y211342D01*
Y210842D01*
X184030Y210343D01*
X185030D01*
X185529Y210842D01*
X161379Y212842D02*
X161878Y213342D01*
X162878D01*
X163378Y212842D01*
Y210842D01*
X162878Y210343D01*
X161878D01*
X161379Y210842D01*
Y211842D01*
X162378D01*
X160379Y210343D02*
Y213342D01*
X158380Y210343D01*
Y213342D01*
X157380D02*
Y210343D01*
X155880D01*
X155380Y210842D01*
Y212842D01*
X155880Y213342D01*
X157380D01*
X176150Y220724D02*
Y217724D01*
X174651D01*
X174151Y218224D01*
Y220224D01*
X174651Y220724D01*
X176150D01*
X171651D02*
X172651D01*
X173151Y220224D01*
Y218224D01*
X172651Y217724D01*
X171651D01*
X171152Y218224D01*
Y220224D01*
X171651Y220724D01*
X177650Y210343D02*
Y213342D01*
X176150D01*
X175650Y212842D01*
Y211842D01*
X176150Y211342D01*
X177650D01*
X174651Y210343D02*
Y212342D01*
X173651Y213342D01*
X172651Y212342D01*
Y210343D01*
Y211842D01*
X174651D01*
X170152Y210343D02*
Y213342D01*
X171651Y211842D01*
X169652D01*
X190028Y217724D02*
Y219724D01*
X189028Y220724D01*
X188029Y219724D01*
Y217724D01*
Y219224D01*
X190028D01*
X187029Y220224D02*
X186529Y220724D01*
X185529D01*
X185030Y220224D01*
Y218224D01*
X185529Y217724D01*
X186529D01*
X187029Y218224D01*
Y220224D01*
X147213Y246563D02*
Y249562D01*
X145713D01*
X145214Y249062D01*
Y248062D01*
X145713Y247563D01*
X147213D01*
X144214Y246563D02*
Y248562D01*
X143214Y249562D01*
X142215Y248562D01*
Y246563D01*
Y248062D01*
X144214D01*
X141215Y246563D02*
X140215D01*
X140715D01*
Y249562D01*
X141215Y249062D01*
X138716D02*
X138216Y249562D01*
X137216D01*
X136716Y249062D01*
Y248562D01*
X137216Y248062D01*
X137716D01*
X137216D01*
X136716Y247563D01*
Y247063D01*
X137216Y246563D01*
X138216D01*
X138716Y247063D01*
X132571Y246563D02*
Y249562D01*
X130571Y246563D01*
Y249562D01*
X129572Y246563D02*
Y249562D01*
X128072D01*
X127573Y249062D01*
Y248062D01*
X128072Y247563D01*
X129572D01*
X128572D02*
X127573Y246563D01*
X124573Y249062D02*
X125073Y249562D01*
X126073D01*
X126573Y249062D01*
Y248562D01*
X126073Y248062D01*
X125073D01*
X124573Y247563D01*
Y247063D01*
X125073Y246563D01*
X126073D01*
X126573Y247063D01*
X123574Y249562D02*
X121574D01*
X122574D01*
Y246563D01*
X192807Y249062D02*
X192307Y249562D01*
X191307D01*
X190808Y249062D01*
Y248562D01*
X191307Y248062D01*
X191807D01*
X191307D01*
X190808Y247563D01*
Y247063D01*
X191307Y246563D01*
X192307D01*
X192807Y247063D01*
X189808Y249562D02*
Y247563D01*
X188808Y246563D01*
X187809Y247563D01*
Y249562D01*
X186809Y249062D02*
X186309Y249562D01*
X185310D01*
X184810Y249062D01*
Y248562D01*
X185310Y248062D01*
X185809D01*
X185310D01*
X184810Y247563D01*
Y247063D01*
X185310Y246563D01*
X186309D01*
X186809Y247063D01*
X192413Y256542D02*
X191913Y257042D01*
X190914D01*
X190414Y256542D01*
Y256043D01*
X190914Y255543D01*
X191414D01*
X190914D01*
X190414Y255043D01*
Y254543D01*
X190914Y254043D01*
X191913D01*
X192413Y254543D01*
X189414Y257042D02*
Y255043D01*
X188415Y254043D01*
X187415Y255043D01*
Y257042D01*
X186415Y256542D02*
X185916Y257042D01*
X184916D01*
X184416Y256542D01*
Y256043D01*
X184916Y255543D01*
X185416D01*
X184916D01*
X184416Y255043D01*
Y254543D01*
X184916Y254043D01*
X185916D01*
X186415Y254543D01*
X93280Y249956D02*
X95279D01*
Y248456D01*
X94280Y248956D01*
X93780D01*
X93280Y248456D01*
Y247457D01*
X93780Y246957D01*
X94780D01*
X95279Y247457D01*
X92280Y249956D02*
Y247956D01*
X91281Y246957D01*
X90281Y247956D01*
Y249956D01*
X86282Y246957D02*
X84283Y248956D01*
X80284Y249456D02*
X79784Y249956D01*
X78785D01*
X78285Y249456D01*
Y248956D01*
X78785Y248456D01*
X79285D01*
X78785D01*
X78285Y247956D01*
Y247457D01*
X78785Y246957D01*
X79784D01*
X80284Y247457D01*
X77285Y249956D02*
Y247956D01*
X76286Y246957D01*
X75286Y247956D01*
Y249956D01*
X74286Y249456D02*
X73786Y249956D01*
X72787D01*
X72287Y249456D01*
Y248956D01*
X72787Y248456D01*
X73286D01*
X72787D01*
X72287Y247956D01*
Y247457D01*
X72787Y246957D01*
X73786D01*
X74286Y247457D01*
X82784Y255437D02*
X84783D01*
X83783Y256436D02*
Y254437D01*
X63249Y249456D02*
X63749Y249956D01*
X64748D01*
X65248Y249456D01*
Y247457D01*
X64748Y246957D01*
X63749D01*
X63249Y247457D01*
Y248456D01*
X64248D01*
X62249Y246957D02*
Y249956D01*
X60250Y246957D01*
Y249956D01*
X59250D02*
Y246957D01*
X57750D01*
X57251Y247457D01*
Y249456D01*
X57750Y249956D01*
X59250D01*
X59949Y255717D02*
X61948D01*
X80572Y274759D02*
X81571D01*
X81071D01*
Y272260D01*
X81571Y271760D01*
X82071D01*
X82571Y272260D01*
X78072Y271760D02*
Y274759D01*
X79572Y273259D01*
X77573D01*
X76573Y274259D02*
X76073Y274759D01*
X75073D01*
X74573Y274259D01*
Y272260D01*
X75073Y271760D01*
X76073D01*
X76573Y272260D01*
Y274259D01*
X73574D02*
X73074Y274759D01*
X72074D01*
X71574Y274259D01*
Y272260D01*
X72074Y271760D01*
X73074D01*
X73574Y272260D01*
Y274259D01*
X180996Y262523D02*
Y265522D01*
X179497D01*
X178997Y265022D01*
Y264023D01*
X179497Y263523D01*
X180996D01*
X177997Y264523D02*
Y262523D01*
Y263523D01*
X177497Y264023D01*
X176997Y264523D01*
X176497D01*
X174498Y262523D02*
X173498D01*
X172999Y263023D01*
Y264023D01*
X173498Y264523D01*
X174498D01*
X174998Y264023D01*
Y263023D01*
X174498Y262523D01*
X170999Y261524D02*
X170499D01*
X170000Y262023D01*
Y264523D01*
X171499D01*
X171999Y264023D01*
Y263023D01*
X171499Y262523D01*
X170000D01*
X169000Y264523D02*
Y262523D01*
Y263523D01*
X168500Y264023D01*
X168000Y264523D01*
X167500D01*
X165501D02*
X164501D01*
X164002Y264023D01*
Y262523D01*
X165501D01*
X166001Y263023D01*
X165501Y263523D01*
X164002D01*
X163002Y262523D02*
Y264523D01*
X162502D01*
X162002Y264023D01*
Y262523D01*
Y264023D01*
X161502Y264523D01*
X161003Y264023D01*
Y262523D01*
X160003D02*
Y264523D01*
X159503D01*
X159003Y264023D01*
Y262523D01*
Y264023D01*
X158503Y264523D01*
X158003Y264023D01*
Y262523D01*
X157004D02*
X156004D01*
X156504D01*
Y264523D01*
X157004D01*
X154505Y262523D02*
Y264523D01*
X153005D01*
X152505Y264023D01*
Y262523D01*
X150506Y261524D02*
X150006D01*
X149506Y262023D01*
Y264523D01*
X151006D01*
X151506Y264023D01*
Y263023D01*
X151006Y262523D01*
X149506D01*
X145508D02*
Y265522D01*
X144008D01*
X143508Y265022D01*
Y264023D01*
X144008Y263523D01*
X145508D01*
X142009Y262523D02*
X141009D01*
X140509Y263023D01*
Y264023D01*
X141009Y264523D01*
X142009D01*
X142508Y264023D01*
Y263023D01*
X142009Y262523D01*
X139509Y264523D02*
Y262523D01*
Y263523D01*
X139010Y264023D01*
X138510Y264523D01*
X138010D01*
X136011Y265022D02*
Y264523D01*
X136510D01*
X135511D01*
X136011D01*
Y263023D01*
X135511Y262523D01*
X130996Y253650D02*
Y256649D01*
X129497D01*
X128997Y256149D01*
Y255149D01*
X129497Y254649D01*
X130996D01*
X129996D02*
X128997Y253650D01*
X125998Y256149D02*
X126497Y256649D01*
X127497D01*
X127997Y256149D01*
Y255649D01*
X127497Y255149D01*
X126497D01*
X125998Y254649D01*
Y254150D01*
X126497Y253650D01*
X127497D01*
X127997Y254150D01*
X124998Y256649D02*
X122999D01*
X123998D01*
Y253650D01*
X159312Y249062D02*
X159811Y249562D01*
X160811D01*
X161311Y249062D01*
Y247063D01*
X160811Y246563D01*
X159811D01*
X159312Y247063D01*
Y248062D01*
X160311D01*
X158312Y246563D02*
Y249562D01*
X156313Y246563D01*
Y249562D01*
X155313D02*
Y246563D01*
X153813D01*
X153314Y247063D01*
Y249062D01*
X153813Y249562D01*
X155313D01*
X146713Y256149D02*
X147213Y256649D01*
X148213D01*
X148713Y256149D01*
Y255649D01*
X148213Y255149D01*
X147213D01*
X146713Y254649D01*
Y254150D01*
X147213Y253650D01*
X148213D01*
X148713Y254150D01*
X145714Y256649D02*
Y253650D01*
X144714Y254649D01*
X143714Y253650D01*
Y256649D01*
X142715D02*
Y253650D01*
X141215D01*
X140715Y254150D01*
Y256149D01*
X141215Y256649D01*
X142715D01*
X139716D02*
X138716D01*
X139216D01*
Y253650D01*
X139716D01*
X138716D01*
X135717Y256649D02*
X136716D01*
X137216Y256149D01*
Y254150D01*
X136716Y253650D01*
X135717D01*
X135217Y254150D01*
Y256149D01*
X135717Y256649D01*
X158918Y256149D02*
X159418Y256649D01*
X160417D01*
X160917Y256149D01*
Y254150D01*
X160417Y253650D01*
X159418D01*
X158918Y254150D01*
Y255149D01*
X159918D01*
X157918Y253650D02*
Y256649D01*
X155919Y253650D01*
Y256649D01*
X154919D02*
Y253650D01*
X153420D01*
X152920Y254150D01*
Y256149D01*
X153420Y256649D01*
X154919D01*
X161502Y273972D02*
X162502D01*
X162002D01*
Y271472D01*
X162502Y270972D01*
X163002D01*
X163502Y271472D01*
X160503Y270972D02*
X159503D01*
X160003D01*
Y273972D01*
X160503Y273472D01*
X158003D02*
X157504Y273972D01*
X156504D01*
X156004Y273472D01*
Y271472D01*
X156504Y270972D01*
X157504D01*
X158003Y271472D01*
Y273472D01*
X155004D02*
X154505Y273972D01*
X153505D01*
X153005Y273472D01*
Y271472D01*
X153505Y270972D01*
X154505D01*
X155004Y271472D01*
Y273472D01*
X178066Y246563D02*
Y249562D01*
X176566D01*
X176066Y249062D01*
Y248062D01*
X176566Y247563D01*
X178066D01*
X175066Y246563D02*
Y248562D01*
X174067Y249562D01*
X173067Y248562D01*
Y246563D01*
Y248062D01*
X175066D01*
X172067Y246563D02*
X171068D01*
X171568D01*
Y249562D01*
X172067Y249062D01*
X168069Y246563D02*
Y249562D01*
X169568Y248062D01*
X167569D01*
X80572Y238145D02*
X81571D01*
X81071D01*
Y235646D01*
X81571Y235146D01*
X82071D01*
X82571Y235646D01*
X78072Y235146D02*
Y238145D01*
X79572Y236645D01*
X77573D01*
X76573Y237645D02*
X76073Y238145D01*
X75073D01*
X74573Y237645D01*
Y235646D01*
X75073Y235146D01*
X76073D01*
X76573Y235646D01*
Y237645D01*
X71574Y235146D02*
X73574D01*
X71574Y237145D01*
Y237645D01*
X72074Y238145D01*
X73074D01*
X73574Y237645D01*
X96320Y228983D02*
X96819Y229483D01*
X97819D01*
X98319Y228983D01*
Y228484D01*
X97819Y227984D01*
X96819D01*
X96320Y227484D01*
Y226984D01*
X96819Y226484D01*
X97819D01*
X98319Y226984D01*
X93820Y226484D02*
X94820D01*
X95320Y226984D01*
Y227984D01*
X94820Y228484D01*
X93820D01*
X93321Y227984D01*
Y227484D01*
X95320D01*
X92321Y226484D02*
Y228484D01*
X90821D01*
X90321Y227984D01*
Y226484D01*
X89322D02*
X87822D01*
X87322Y226984D01*
X87822Y227484D01*
X88822D01*
X89322Y227984D01*
X88822Y228484D01*
X87322D01*
X85823Y226484D02*
X84823D01*
X84323Y226984D01*
Y227984D01*
X84823Y228484D01*
X85823D01*
X86323Y227984D01*
Y226984D01*
X85823Y226484D01*
X83324Y228484D02*
Y226484D01*
Y227484D01*
X82824Y227984D01*
X82324Y228484D01*
X81824D01*
X77326Y229483D02*
Y226484D01*
X75826D01*
X75326Y226984D01*
Y228983D01*
X75826Y229483D01*
X77326D01*
X72327Y228983D02*
X72827Y229483D01*
X73827D01*
X74327Y228983D01*
Y228484D01*
X73827Y227984D01*
X72827D01*
X72327Y227484D01*
Y226984D01*
X72827Y226484D01*
X73827D01*
X74327Y226984D01*
X71328Y226484D02*
X70328D01*
X70828D01*
Y229483D01*
X71328Y228983D01*
X68828D02*
X68329Y229483D01*
X67329D01*
X66829Y228983D01*
Y228484D01*
X67329Y227984D01*
X66829Y227484D01*
Y226984D01*
X67329Y226484D01*
X68329D01*
X68828Y226984D01*
Y227484D01*
X68329Y227984D01*
X68828Y228484D01*
Y228983D01*
X68329Y227984D02*
X67329D01*
X65829Y229483D02*
Y226484D01*
X64330D01*
X63830Y226984D01*
Y227484D01*
X64330Y227984D01*
X65829D01*
X64330D01*
X63830Y228484D01*
Y228983D01*
X64330Y229483D01*
X65829D01*
X60831Y226484D02*
X62830D01*
X60831Y228484D01*
Y228983D01*
X61331Y229483D01*
X62331D01*
X62830Y228983D01*
X59831D02*
X59332Y229483D01*
X58332D01*
X57832Y228983D01*
Y226984D01*
X58332Y226484D01*
X59332D01*
X59831Y226984D01*
Y228983D01*
X66412Y220822D02*
Y218823D01*
X65412Y217823D01*
X64412Y218823D01*
Y220822D01*
X61414Y220322D02*
X61913Y220822D01*
X62913D01*
X63413Y220322D01*
Y218323D01*
X62913Y217823D01*
X61913D01*
X61414Y218323D01*
X58415Y220322D02*
X58914Y220822D01*
X59914D01*
X60414Y220322D01*
Y218323D01*
X59914Y217823D01*
X58914D01*
X58415Y218323D01*
X101044Y220322D02*
X101544Y220822D01*
X102543D01*
X103043Y220322D01*
Y218323D01*
X102543Y217823D01*
X101544D01*
X101044Y218323D01*
Y219322D01*
X102044D01*
X100044Y217823D02*
Y220822D01*
X98045Y217823D01*
Y220822D01*
X97045D02*
Y217823D01*
X95546D01*
X95046Y218323D01*
Y220322D01*
X95546Y220822D01*
X97045D01*
X101044Y213235D02*
X101544Y213735D01*
X102543D01*
X103043Y213235D01*
Y211236D01*
X102543Y210736D01*
X101544D01*
X101044Y211236D01*
Y212236D01*
X102044D01*
X100044Y210736D02*
Y213735D01*
X98045Y210736D01*
Y213735D01*
X97045D02*
Y210736D01*
X95546D01*
X95046Y211236D01*
Y213235D01*
X95546Y213735D01*
X97045D01*
X88083Y210736D02*
Y213735D01*
X86583D01*
X86083Y213235D01*
Y212236D01*
X86583Y211736D01*
X88083D01*
X85084Y210736D02*
Y212736D01*
X84084Y213735D01*
X83084Y212736D01*
Y210736D01*
Y212236D01*
X85084D01*
X80085Y210736D02*
X82085D01*
X80085Y212736D01*
Y213235D01*
X80585Y213735D01*
X81585D01*
X82085Y213235D01*
X86583Y220822D02*
Y217823D01*
X85084D01*
X84584Y218323D01*
Y220322D01*
X85084Y220822D01*
X86583D01*
X81585Y218323D02*
Y220322D01*
X82085Y220822D01*
X83084D01*
X83584Y220322D01*
Y218323D01*
X83084Y217823D01*
X82085D01*
X82584Y218823D02*
X81585Y217823D01*
X82085D02*
X81585Y218323D01*
D69*
X219902Y267091D02*
G03*
X219902Y267091I-1500J0D01*
G01*
X33390Y77559D02*
G03*
X33390Y77559I-1500J0D01*
G01*
X86539Y307894D02*
G03*
X86539Y307894I-1500J0D01*
G01*
X219902Y198591D02*
G03*
X219902Y198591I-1500J0D01*
G01*
Y242590D02*
G03*
X219902Y242590I-1500J0D01*
G01*
D80*
X102529Y107458D02*
X134529D01*
X90929Y91058D02*
X101329D01*
X122929Y123458D02*
X123729D01*
X114129D02*
X116929D01*
X122529Y123058D02*
X124129D01*
X113329D02*
X116929D01*
X122529Y122658D02*
X124129D01*
X115729D02*
X116929D01*
X112929D02*
X115329D01*
X122129Y122258D02*
X124129D01*
X115729D02*
X116929D01*
X112529D02*
X114129D01*
X121729Y121858D02*
X124529D01*
X115729D02*
X116929D01*
X112529D02*
X113729D01*
X130129Y121458D02*
X132129D01*
X123329D02*
X124529D01*
X121729D02*
X122929D01*
X115729D02*
X116929D01*
X112529D02*
X113729D01*
X129329Y121058D02*
X133329D01*
X123329D02*
X124529D01*
X121329D02*
X122929D01*
X115729D02*
X116929D01*
X112529D02*
X113729D01*
X128929Y120658D02*
X133729D01*
X123329D02*
X124529D01*
X121329D02*
X122529D01*
X115729D02*
X116929D01*
X112529D02*
X113729D01*
X132529Y120258D02*
X133729D01*
X128929D02*
X130529D01*
X120929D02*
X124929D01*
X116129D02*
X117329D01*
X112529D02*
X113729D01*
X102129D02*
X103329D01*
X132129Y119858D02*
X133729D01*
X128529D02*
X130129D01*
X120929D02*
X124929D01*
X116129D02*
X117329D01*
X112529D02*
X113729D01*
X101729D02*
X103329D01*
X132129Y119458D02*
X133329D01*
X128529D02*
X129729D01*
X123729D02*
X124929D01*
X120529D02*
X122129D01*
X116129D02*
X117329D01*
X112529D02*
X114129D01*
X101729D02*
X103729D01*
X132129Y119058D02*
X133329D01*
X128529D02*
X129729D01*
X123729D02*
X124929D01*
X120529D02*
X121729D01*
X115329D02*
X117329D01*
X112929D02*
X114929D01*
X101729D02*
X103729D01*
X99329D02*
X100129D01*
X131729Y118658D02*
X133329D01*
X128529D02*
X129729D01*
X123729D02*
X124929D01*
X120129D02*
X121729D01*
X113329D02*
X117329D01*
X101729D02*
X104129D01*
X98929D02*
X100129D01*
X137729Y118258D02*
X138929D01*
X131729D02*
X132929D01*
X128529D02*
X129729D01*
X124129D02*
X125329D01*
X120129D02*
X121729D01*
X114129D02*
X116929D01*
X101729D02*
X104129D01*
X99329D02*
X100529D01*
X137329Y117858D02*
X138929D01*
X131729D02*
X132929D01*
X128529D02*
X129729D01*
X124129D02*
X125329D01*
X101729D02*
X104529D01*
X99329D02*
X100529D01*
X137329Y117458D02*
X138929D01*
X131329D02*
X132929D01*
X128529D02*
X130129D01*
X103329D02*
X104529D01*
X101729D02*
X102929D01*
X99729D02*
X100929D01*
X136929Y117058D02*
X138529D01*
X131329D02*
X132529D01*
X128929D02*
X130529D01*
X103329D02*
X104929D01*
X101729D02*
X102529D01*
X99729D02*
X100929D01*
X136929Y116658D02*
X138129D01*
X129329D02*
X132529D01*
X103729D02*
X104929D01*
X100129D02*
X102529D01*
X136529Y116258D02*
X138129D01*
X129729D02*
X132529D01*
X103729D02*
X105329D01*
X100129D02*
X102529D01*
X136529Y115858D02*
X137729D01*
X130929D02*
X132129D01*
X104129D02*
X105329D01*
X100129D02*
X102529D01*
X142529Y115458D02*
X142929D01*
X136129D02*
X137729D01*
X104129D02*
X104929D01*
X100529D02*
X102529D01*
X142129Y115058D02*
X143729D01*
X135729D02*
X137329D01*
X100529D02*
X102529D01*
X93329D02*
X94529D01*
X142129Y114658D02*
X144129D01*
X135729D02*
X137329D01*
X100929D02*
X102529D01*
X92929D02*
X95329D01*
X142929Y114258D02*
X144529D01*
X135329D02*
X136929D01*
X100929D02*
X102529D01*
X93329D02*
X96129D01*
X143329Y113858D02*
X144529D01*
X135329D02*
X136529D01*
X101329D02*
X101729D01*
X93329D02*
X96529D01*
X143729Y113458D02*
X144529D01*
X135729D02*
X136529D01*
X93329D02*
X97329D01*
X143329Y113058D02*
X144529D01*
X140129D02*
X142929D01*
X95729D02*
X97729D01*
X93729D02*
X94929D01*
X140129Y112658D02*
X144529D01*
X95329D02*
X98529D01*
X93729D02*
X94929D01*
X139729Y112258D02*
X144529D01*
X96929D02*
X98929D01*
X93729D02*
X96529D01*
X139729Y111858D02*
X140929D01*
X114129D02*
X122929D01*
X97329D02*
X98529D01*
X94129D02*
X96129D01*
X139729Y111458D02*
X140929D01*
X111729D02*
X124929D01*
X94129D02*
X95329D01*
X139729Y111058D02*
X140929D01*
X110529D02*
X126529D01*
X94129D02*
X95729D01*
X140129Y110658D02*
X141729D01*
X108929D02*
X127729D01*
X94529D02*
X95729D01*
X140529Y110258D02*
X142529D01*
X108129D02*
X128929D01*
X94529D02*
X95729D01*
X147329Y109858D02*
X148529D01*
X140929D02*
X142529D01*
X106929D02*
X130129D01*
X94529D02*
X95729D01*
X146929Y109458D02*
X149329D01*
X141729D02*
X142129D01*
X106129D02*
X130929D01*
X94929D02*
X95729D01*
X87729D02*
X90529D01*
X146529Y109058D02*
X149729D01*
X105329D02*
X131729D01*
X87329D02*
X91329D01*
X148529Y108658D02*
X150129D01*
X146529D02*
X148129D01*
X104529D02*
X132529D01*
X89329D02*
X91729D01*
X86929D02*
X88529D01*
X148929Y108258D02*
X150529D01*
X146529D02*
X147729D01*
X103729D02*
X133329D01*
X90129D02*
X92129D01*
X86529D02*
X88129D01*
X148929Y107858D02*
X150529D01*
X145729D02*
X147329D01*
X103329D02*
X133729D01*
X90529D02*
X92129D01*
X86529D02*
X87729D01*
X148129Y107458D02*
X150529D01*
X143729D02*
X147729D01*
X90929D02*
X92129D01*
X86529D02*
X87729D01*
X143729Y107058D02*
X149729D01*
X102129D02*
X134929D01*
X90929D02*
X92129D01*
X86929D02*
X87329D01*
X146929Y106658D02*
X149329D01*
X144129D02*
X145729D01*
X101329D02*
X135729D01*
X90929D02*
X92129D01*
X146929Y106258D02*
X148929D01*
X100929D02*
X136129D01*
X90929D02*
X92129D01*
X146129Y105858D02*
X148529D01*
X100529D02*
X136529D01*
X90529D02*
X92129D01*
X145729Y105458D02*
X147729D01*
X100129D02*
X136929D01*
X90129D02*
X91729D01*
X145729Y105058D02*
X147329D01*
X99329D02*
X137729D01*
X89729D02*
X91729D01*
X145729Y104658D02*
X146929D01*
X98929D02*
X138129D01*
X89729D02*
X91329D01*
X98529Y104258D02*
X138529D01*
X90129D02*
X90529D01*
X152529Y103858D02*
X153329D01*
X98129D02*
X138929D01*
X83729D02*
X84529D01*
X152529Y103458D02*
X153329D01*
X97729D02*
X139329D01*
X83329D02*
X85329D01*
X152529Y103058D02*
X153729D01*
X97329D02*
X139729D01*
X83329D02*
X85729D01*
X152529Y102658D02*
X154129D01*
X150929D02*
X151329D01*
X96929D02*
X140129D01*
X84129D02*
X86529D01*
X152929Y102258D02*
X154129D01*
X150529D02*
X151729D01*
X96929D02*
X140129D01*
X84529D02*
X87329D01*
X153329Y101858D02*
X154529D01*
X150529D02*
X151729D01*
X148529D02*
X149329D01*
X96529D02*
X140529D01*
X85329D02*
X88129D01*
X152529Y101458D02*
X154529D01*
X150929D02*
X152129D01*
X148129D02*
X149329D01*
X96129D02*
X140929D01*
X86129D02*
X88529D01*
X150929Y101058D02*
X154529D01*
X148529D02*
X149729D01*
X95729D02*
X141329D01*
X86529D02*
X88529D01*
X151329Y100658D02*
X154129D01*
X148529D02*
X149729D01*
X95329D02*
X141729D01*
X87329D02*
X88529D01*
X150529Y100258D02*
X153329D01*
X148929D02*
X150129D01*
X95329D02*
X141729D01*
X148929Y99858D02*
X152529D01*
X94929D02*
X142129D01*
X149329Y99458D02*
X151729D01*
X94529D02*
X142529D01*
X149329Y99058D02*
X150929D01*
X94529D02*
X142529D01*
X149729Y98658D02*
X150129D01*
X94129D02*
X142929D01*
X93729Y98258D02*
X143329D01*
X81729D02*
X84129D01*
X93729Y97858D02*
X143329D01*
X80929D02*
X84929D01*
X93329Y97458D02*
X143729D01*
X80929D02*
X85729D01*
X155729Y97058D02*
X156529D01*
X93329D02*
X143729D01*
X83729D02*
X85729D01*
X80529D02*
X81729D01*
X154929Y96658D02*
X156529D01*
X92929D02*
X144129D01*
X84529D02*
X86129D01*
X80529D02*
X81329D01*
X154529Y96258D02*
X156529D01*
X92929D02*
X144129D01*
X84929D02*
X86129D01*
X80129D02*
X81329D01*
X154129Y95858D02*
X156129D01*
X92529D02*
X144529D01*
X84929D02*
X86129D01*
X80129D02*
X81329D01*
X153329Y95458D02*
X155329D01*
X92529D02*
X144529D01*
X84929D02*
X86129D01*
X80129D02*
X81329D01*
X152929Y95058D02*
X154929D01*
X92129D02*
X144929D01*
X84929D02*
X86129D01*
X80129D02*
X81729D01*
X152529Y94658D02*
X154529D01*
X92129D02*
X144929D01*
X84529D02*
X85729D01*
X80529D02*
X82529D01*
X151729Y94258D02*
X153729D01*
X91729D02*
X144929D01*
X80929D02*
X85729D01*
X151729Y93858D02*
X154129D01*
X91729D02*
X145329D01*
X81329D02*
X85329D01*
X151729Y93458D02*
X157729D01*
X91729D02*
X145329D01*
X81729D02*
X84929D01*
X151729Y93058D02*
X157729D01*
X138929D02*
X145729D01*
X122929D02*
X136129D01*
X116929D02*
X120529D01*
X91329D02*
X106529D01*
X154929Y92658D02*
X157729D01*
X138929D02*
X145729D01*
X122929D02*
X136129D01*
X116929D02*
X120529D01*
X91329D02*
X104529D01*
X138929Y92258D02*
X145729D01*
X122929D02*
X136129D01*
X116929D02*
X120529D01*
X91329D02*
X103329D01*
X138929Y91858D02*
X146129D01*
X122929D02*
X136129D01*
X116929D02*
X120529D01*
X90929D02*
X102529D01*
X138929Y91458D02*
X146129D01*
X122929D02*
X136129D01*
X116929D02*
X120529D01*
X90929D02*
X101729D01*
X138929Y91058D02*
X146129D01*
X122929D02*
X136129D01*
X116929D02*
X120529D01*
X138929Y90658D02*
X146129D01*
X122929D02*
X136129D01*
X116929D02*
X120529D01*
X90929D02*
X100929D01*
X138929Y90258D02*
X146529D01*
X122929D02*
X136129D01*
X116929D02*
X120529D01*
X106129D02*
X108929D01*
X90529D02*
X100529D01*
X138929Y89858D02*
X146529D01*
X122929D02*
X136129D01*
X116929D02*
X120529D01*
X104929D02*
X110529D01*
X90529D02*
X100129D01*
X138929Y89458D02*
X146529D01*
X122929D02*
X136129D01*
X116929D02*
X120529D01*
X104129D02*
X111329D01*
X90529D02*
X100129D01*
X78529D02*
X82529D01*
X138929Y89058D02*
X146529D01*
X122929D02*
X136129D01*
X116929D02*
X120529D01*
X103329D02*
X111729D01*
X90529D02*
X99729D01*
X78529D02*
X84129D01*
X157329Y88658D02*
X158529D01*
X138929D02*
X146529D01*
X122929D02*
X136129D01*
X116929D02*
X120529D01*
X102929D02*
X112129D01*
X90529D02*
X99329D01*
X78529D02*
X84129D01*
X153729Y88258D02*
X158529D01*
X138929D02*
X146929D01*
X122929D02*
X136129D01*
X116929D02*
X120529D01*
X102529D02*
X112529D01*
X90129D02*
X99329D01*
X83729D02*
X84129D01*
X79329D02*
X80929D01*
X152929Y87858D02*
X158529D01*
X138929D02*
X146929D01*
X122929D02*
X136129D01*
X116929D02*
X120529D01*
X102129D02*
X112929D01*
X90129D02*
X98929D01*
X79729D02*
X81729D01*
X152929Y87458D02*
X157329D01*
X138929D02*
X146929D01*
X122929D02*
X136129D01*
X116929D02*
X120529D01*
X102129D02*
X113329D01*
X90129D02*
X98929D01*
X80129D02*
X82129D01*
X152929Y87058D02*
X153729D01*
X138929D02*
X146929D01*
X122929D02*
X136129D01*
X116929D02*
X120529D01*
X101729D02*
X113329D01*
X90129D02*
X98929D01*
X80529D02*
X82529D01*
X138929Y86658D02*
X146929D01*
X122929D02*
X136129D01*
X116929D02*
X120529D01*
X101729D02*
X113729D01*
X90129D02*
X98529D01*
X81329D02*
X82929D01*
X138929Y86258D02*
X146929D01*
X122929D02*
X136129D01*
X116929D02*
X120529D01*
X101329D02*
X113729D01*
X90129D02*
X98529D01*
X81729D02*
X83729D01*
X78529D02*
X80529D01*
X138929Y85858D02*
X146929D01*
X122929D02*
X136129D01*
X116929D02*
X120529D01*
X101329D02*
X113729D01*
X90129D02*
X98529D01*
X78529D02*
X84129D01*
X138929Y85458D02*
X146929D01*
X122929D02*
X136129D01*
X116929D02*
X120529D01*
X101329D02*
X114129D01*
X90129D02*
X98529D01*
X78529D02*
X84129D01*
X138929Y85058D02*
X146929D01*
X122929D02*
X136129D01*
X116929D02*
X120529D01*
X100929D02*
X114129D01*
X90129D02*
X98529D01*
X81729D02*
X83729D01*
X138929Y84658D02*
X146929D01*
X122929D02*
X136129D01*
X116929D02*
X120529D01*
X100929D02*
X114129D01*
X90129D02*
X98529D01*
X138929Y84258D02*
X146929D01*
X122929D02*
X136129D01*
X116929D02*
X120529D01*
X100929D02*
X114129D01*
X89729D02*
X98529D01*
X138929Y83858D02*
X146929D01*
X122929D02*
X136129D01*
X116929D02*
X120529D01*
X100929D02*
X114129D01*
X89729D02*
X98529D01*
X138929Y83458D02*
X146929D01*
X122929D02*
X136129D01*
X116929D02*
X120529D01*
X100929D02*
X114129D01*
X89729D02*
X98529D01*
X153329Y83058D02*
X157329D01*
X138529D02*
X146929D01*
X122929D02*
X136129D01*
X116929D02*
X120529D01*
X100929D02*
X114129D01*
X89729D02*
X98529D01*
X152929Y82658D02*
X158529D01*
X138529D02*
X146929D01*
X122929D02*
X136129D01*
X116929D02*
X120529D01*
X100929D02*
X114129D01*
X90129D02*
X98529D01*
X152929Y82258D02*
X158529D01*
X138529D02*
X146929D01*
X123329D02*
X135729D01*
X116929D02*
X120529D01*
X100929D02*
X114129D01*
X90129D02*
X98529D01*
X153729Y81858D02*
X155729D01*
X138529D02*
X146929D01*
X123329D02*
X135729D01*
X116929D02*
X120529D01*
X100929D02*
X114129D01*
X90129D02*
X98529D01*
X83329D02*
X83729D01*
X154129Y81458D02*
X156129D01*
X138529D02*
X146929D01*
X123329D02*
X135729D01*
X116929D02*
X120529D01*
X100929D02*
X114129D01*
X90129D02*
X98529D01*
X82529D02*
X84129D01*
X154529Y81058D02*
X156529D01*
X138529D02*
X146929D01*
X123729D02*
X135729D01*
X116929D02*
X120529D01*
X100929D02*
X114129D01*
X90129D02*
X98529D01*
X81729D02*
X84129D01*
X155329Y80658D02*
X157329D01*
X138129D02*
X146929D01*
X123729D02*
X135329D01*
X116929D02*
X120529D01*
X100929D02*
X114129D01*
X90129D02*
X98529D01*
X80929D02*
X83729D01*
X155729Y80258D02*
X157729D01*
X138129D02*
X146929D01*
X124129D02*
X134929D01*
X116929D02*
X120529D01*
X100929D02*
X114129D01*
X90129D02*
X98529D01*
X80129D02*
X82929D01*
X156129Y79858D02*
X158129D01*
X152929D02*
X154529D01*
X138129D02*
X146929D01*
X124129D02*
X134929D01*
X116929D02*
X120529D01*
X100929D02*
X114129D01*
X90129D02*
X98529D01*
X79329D02*
X82529D01*
X152929Y79458D02*
X158529D01*
X137729D02*
X146929D01*
X124529D02*
X134529D01*
X116929D02*
X120529D01*
X100929D02*
X114129D01*
X90129D02*
X98529D01*
X81729D02*
X82529D01*
X78529D02*
X80929D01*
X152929Y79058D02*
X158529D01*
X137729D02*
X146929D01*
X124929D02*
X134129D01*
X116929D02*
X120529D01*
X100929D02*
X114129D01*
X90129D02*
X98529D01*
X81729D02*
X82529D01*
X78529D02*
X80529D01*
X156129Y78658D02*
X158529D01*
X137329D02*
X146529D01*
X125729D02*
X133729D01*
X116929D02*
X120529D01*
X100929D02*
X114129D01*
X90129D02*
X98529D01*
X78529D02*
X82529D01*
X136929Y78258D02*
X146529D01*
X126129D02*
X132929D01*
X116929D02*
X120529D01*
X100929D02*
X114129D01*
X90529D02*
X98529D01*
X78529D02*
X84129D01*
X136929Y77858D02*
X146529D01*
X126929D02*
X132129D01*
X116929D02*
X120529D01*
X100929D02*
X114129D01*
X90529D02*
X98529D01*
X80129D02*
X84529D01*
X136529Y77458D02*
X146529D01*
X128529D02*
X130529D01*
X116929D02*
X120529D01*
X100929D02*
X114129D01*
X90529D02*
X98529D01*
X82129D02*
X84529D01*
X136129Y77058D02*
X146529D01*
X116929D02*
X120529D01*
X100929D02*
X114129D01*
X90529D02*
X98529D01*
X83729D02*
X84529D01*
X135729Y76658D02*
X146129D01*
X116929D02*
X120529D01*
X100929D02*
X114129D01*
X90929D02*
X98529D01*
X134929Y76258D02*
X146129D01*
X116929D02*
X120529D01*
X100929D02*
X114129D01*
X90929D02*
X98529D01*
X134529Y75858D02*
X146129D01*
X116929D02*
X120529D01*
X100929D02*
X114129D01*
X90929D02*
X98529D01*
X133729Y75458D02*
X146129D01*
X116929D02*
X120529D01*
X100929D02*
X114129D01*
X90929D02*
X98529D01*
X132529Y75058D02*
X145729D01*
X116929D02*
X120529D01*
X100929D02*
X114129D01*
X91329D02*
X98529D01*
X152529Y74658D02*
X154529D01*
X91329D02*
X145729D01*
X151729Y74258D02*
X156129D01*
X91329D02*
X145729D01*
X151729Y73858D02*
X157329D01*
X91729D02*
X145329D01*
X84129D02*
X85329D01*
X154529Y73458D02*
X157329D01*
X151329D02*
X152929D01*
X91729D02*
X145329D01*
X82929D02*
X85329D01*
X155729Y73058D02*
X157329D01*
X151329D02*
X152529D01*
X91729D02*
X145329D01*
X81729D02*
X85729D01*
X151329Y72658D02*
X152529D01*
X92129D02*
X144929D01*
X80529D02*
X85729D01*
X151329Y72258D02*
X152529D01*
X92129D02*
X144929D01*
X84529D02*
X85729D01*
X80129D02*
X83329D01*
X151329Y71858D02*
X152929D01*
X92529D02*
X144529D01*
X84929D02*
X86129D01*
X80129D02*
X82129D01*
X151329Y71458D02*
X154129D01*
X92529D02*
X144529D01*
X84929D02*
X86129D01*
X80129D02*
X80929D01*
X151729Y71058D02*
X155329D01*
X92929D02*
X144129D01*
X84929D02*
X86129D01*
X152529Y70658D02*
X156529D01*
X92929D02*
X144129D01*
X153729Y70258D02*
X156529D01*
X93329D02*
X143729D01*
X155329Y69858D02*
X156529D01*
X93329D02*
X143729D01*
X93729Y69458D02*
X143329D01*
X93729Y69058D02*
X143329D01*
X94129Y68658D02*
X142929D01*
X94129Y68258D02*
X142529D01*
X94529Y67858D02*
X142529D01*
X94929Y67458D02*
X142129D01*
X94929Y67058D02*
X141729D01*
X95329Y66658D02*
X141729D01*
X95729Y66258D02*
X141329D01*
X96129Y65858D02*
X140929D01*
X96129Y65458D02*
X140529D01*
X96529Y65058D02*
X140529D01*
X96929Y64658D02*
X140129D01*
X97329Y64258D02*
X139729D01*
X97729Y63858D02*
X139329D01*
X98129Y63458D02*
X138929D01*
X98529Y63058D02*
X138529D01*
X98929Y62658D02*
X138129D01*
X99329Y62258D02*
X137729D01*
X145729Y61858D02*
X146929D01*
X99729D02*
X137329D01*
X145329Y61458D02*
X147329D01*
X100529D02*
X136529D01*
X144929Y61058D02*
X147729D01*
X100929D02*
X136129D01*
X90529D02*
X91729D01*
X146529Y60658D02*
X148529D01*
X144929D02*
X146129D01*
X101329D02*
X135729D01*
X89729D02*
X92129D01*
X146929Y60258D02*
X148929D01*
X144529D02*
X145729D01*
X101729D02*
X134929D01*
X88529D02*
X92129D01*
X147329Y59858D02*
X149329D01*
X144529D02*
X145729D01*
X102529D02*
X134529D01*
X87329D02*
X92129D01*
X147729Y59458D02*
X149729D01*
X144129D02*
X145329D01*
X102929D02*
X134129D01*
X90529D02*
X91729D01*
X86529D02*
X89729D01*
X148129Y59058D02*
X150129D01*
X144129D02*
X145329D01*
X103729D02*
X133329D01*
X90129D02*
X91729D01*
X86129D02*
X89729D01*
X148529Y58658D02*
X150529D01*
X144129D02*
X145729D01*
X104529D02*
X132529D01*
X88529D02*
X91329D01*
X86529D02*
X87729D01*
X148929Y58258D02*
X150129D01*
X144529D02*
X145729D01*
X105329D02*
X131729D01*
X88929D02*
X91329D01*
X148529Y57858D02*
X149729D01*
X144529D02*
X146129D01*
X105729D02*
X130929D01*
X89329D02*
X90929D01*
X147729Y57458D02*
X149729D01*
X144929D02*
X146929D01*
X106929D02*
X130129D01*
X94929D02*
X95329D01*
X89329D02*
X90529D01*
X145329Y57058D02*
X149329D01*
X141329D02*
X141729D01*
X107729D02*
X129329D01*
X94529D02*
X95729D01*
X88929D02*
X90529D01*
X145729Y56658D02*
X148529D01*
X140529D02*
X142129D01*
X108929D02*
X128129D01*
X94129D02*
X96129D01*
X88929D02*
X90129D01*
X140129Y56258D02*
X142529D01*
X110129D02*
X126929D01*
X94129D02*
X95729D01*
X88529D02*
X90129D01*
X139729Y55858D02*
X142929D01*
X111329D02*
X125729D01*
X93729D02*
X95329D01*
X88929D02*
X89729D01*
X141329Y55458D02*
X142929D01*
X138929D02*
X140929D01*
X113329D02*
X123729D01*
X93329D02*
X94929D01*
X141729Y55058D02*
X143329D01*
X138929D02*
X140529D01*
X116929D02*
X120129D01*
X92929D02*
X94529D01*
X141729Y54658D02*
X143729D01*
X139329D02*
X140129D01*
X92529D02*
X94129D01*
X141329Y54258D02*
X144129D01*
X97729D02*
X99729D01*
X92129D02*
X94129D01*
X140529Y53858D02*
X144529D01*
X97329D02*
X100129D01*
X91729D02*
X93729D01*
X142929Y53458D02*
X144529D01*
X140529D02*
X142129D01*
X97329D02*
X100929D01*
X91729D02*
X93329D01*
X143329Y53058D02*
X144929D01*
X140929D02*
X141329D01*
X99729D02*
X101329D01*
X97329D02*
X98529D01*
X91729D02*
X92929D01*
X142929Y52658D02*
X144929D01*
X99329D02*
X100929D01*
X97329D02*
X98129D01*
X142529Y52258D02*
X144129D01*
X99329D02*
X100929D01*
X96129D02*
X98529D01*
X141729Y51858D02*
X143729D01*
X95729D02*
X100529D01*
X141729Y51458D02*
X143329D01*
X103329D02*
X104929D01*
X97729D02*
X100129D01*
X95729D02*
X96929D01*
X142129Y51058D02*
X142929D01*
X130929D02*
X133729D01*
X103329D02*
X104929D01*
X98529D02*
X100129D01*
X95729D02*
X96929D01*
X130129Y50658D02*
X134529D01*
X102929D02*
X104929D01*
X98129D02*
X99729D01*
X95729D02*
X96929D01*
X132929Y50258D02*
X134529D01*
X130129D02*
X131729D01*
X107329D02*
X108129D01*
X102929D02*
X104929D01*
X97729D02*
X99329D01*
X95729D02*
X97329D01*
X133329Y49858D02*
X134929D01*
X130129D02*
X131329D01*
X106929D02*
X108529D01*
X102529D02*
X104929D01*
X96129D02*
X99329D01*
X133729Y49458D02*
X134929D01*
X125329D02*
X126929D01*
X106529D02*
X108529D01*
X102529D02*
X104929D01*
X96529D02*
X98929D01*
X133729Y49058D02*
X135329D01*
X124529D02*
X128129D01*
X112129D02*
X113729D01*
X106129D02*
X108129D01*
X102129D02*
X104929D01*
X97329D02*
X98529D01*
X134129Y48658D02*
X135329D01*
X124129D02*
X128529D01*
X119729D02*
X120929D01*
X111329D02*
X114529D01*
X105729D02*
X108129D01*
X103729D02*
X104929D01*
X102129D02*
X103329D01*
X97729D02*
X98529D01*
X134129Y48258D02*
X135329D01*
X126929D02*
X128529D01*
X123729D02*
X125329D01*
X119729D02*
X120929D01*
X110929D02*
X114929D01*
X105329D02*
X108129D01*
X103729D02*
X104929D01*
X101729D02*
X103329D01*
X134129Y47858D02*
X135329D01*
X127329D02*
X128929D01*
X123729D02*
X125329D01*
X119729D02*
X120929D01*
X114129D02*
X115329D01*
X110929D02*
X112529D01*
X106929D02*
X108129D01*
X103729D02*
X106529D01*
X101729D02*
X102929D01*
X133729Y47458D02*
X135329D01*
X127729D02*
X128929D01*
X123729D02*
X124929D01*
X119729D02*
X120929D01*
X114129D02*
X115329D01*
X110529D02*
X112129D01*
X106929D02*
X107729D01*
X103729D02*
X106129D01*
X101329D02*
X102929D01*
X133329Y47058D02*
X134929D01*
X127729D02*
X128929D01*
X123729D02*
X124929D01*
X119729D02*
X120929D01*
X114529D02*
X115729D01*
X110529D02*
X111729D01*
X106529D02*
X107729D01*
X103729D02*
X106129D01*
X101329D02*
X102529D01*
X132529Y46658D02*
X134929D01*
X127729D02*
X128929D01*
X123729D02*
X124929D01*
X119729D02*
X120929D01*
X114529D02*
X115729D01*
X110529D02*
X111729D01*
X106529D02*
X107729D01*
X103729D02*
X105729D01*
X101729D02*
X102529D01*
X131729Y46258D02*
X134529D01*
X127729D02*
X128929D01*
X123729D02*
X124929D01*
X119729D02*
X120929D01*
X114529D02*
X115729D01*
X110529D02*
X111729D01*
X106529D02*
X107729D01*
X103729D02*
X105329D01*
X131729Y45858D02*
X133729D01*
X127729D02*
X128929D01*
X123729D02*
X125329D01*
X119729D02*
X120929D01*
X114529D02*
X115729D01*
X110529D02*
X111729D01*
X106129D02*
X107329D01*
X103729D02*
X104929D01*
X127729Y45458D02*
X128929D01*
X124129D02*
X125329D01*
X119729D02*
X120929D01*
X114129D02*
X115729D01*
X110529D02*
X111729D01*
X106129D02*
X107329D01*
X126929Y45058D02*
X128929D01*
X124129D02*
X125729D01*
X119729D02*
X120929D01*
X114129D02*
X115329D01*
X110529D02*
X111729D01*
X106129D02*
X107329D01*
X124529Y44658D02*
X128529D01*
X119729D02*
X120929D01*
X113729D02*
X115329D01*
X110929D02*
X112129D01*
X124929Y44258D02*
X128129D01*
X119729D02*
X120929D01*
X110929D02*
X114929D01*
X117729Y43858D02*
X120929D01*
X111329D02*
X114929D01*
X117729Y43458D02*
X120929D01*
X112529D02*
X114129D01*
M02*
