M48
;Layer_Color=9474304
;FILE_FORMAT=2:5
INCH,LZ
;TYPE=PLATED
T01F00S00C0.01200
T02F00S00C0.02000
T03F00S00C0.02800
T04F00S00C0.03500
T06F00S00C0.05512
T07F00S00C0.12205
%
T01
X0004331Y0018406
X0057776
X0058858Y0040846
X0102854
X0115847
X0128642
X0142421Y0018406
X0165945
X0165157Y0040846
X0207382
X0086713Y0018406
X0240158
X0223819Y0040846
X0215748Y006811
X021565Y0081988
X0220276Y0108957
X0240158Y0089173
Y0060827
Y0151969
Y0182382
Y0206004
X0214272Y0204921
X0218209Y0169882
X0212106Y014252
X0186024Y0145669
X0183563Y0170571
X0173917Y0179035
Y019124
X0173721Y0202854
X0192126Y0202559
X0123622Y0198819
Y0196063
X0109846Y019491
X0109175Y0187008
X0113386
X0111155Y0184383
X0104724Y0184744
X0099244Y0187008
X0095244
X0097933Y0181102
Y0174802
X0097244Y0194882
X0093307
X0101181
X0100394Y0203937
X0095965Y0201961
X010748Y0206693
X0105512Y0209449
X0114961Y0202915
X0127559Y0184646
X0118898Y0170866
X0114469Y0131299
X0091535
X0090945Y0111417
X0100394Y0105512
X0127657Y0102264
X0128248Y0081201
X0107972Y0071752
X0073819Y0072244
X007815Y0155217
X0083858Y0184941
X0154528Y0158268
X0162106Y0132776
X0156595Y0098622
X0153347Y0064075
X0194587Y0065354
X0187402Y0073228
X0200394Y0075984
X0205512
X0195276Y0089862
Y0114075
X0054921Y0156496
X0050098Y0193209
X0040945Y020561
X0053445Y021198
X001998Y0073032
X0003937Y0061811
X0018799Y0226083
X0053445Y0221752
X0048425Y0252264
X0017126Y026939
X0007776Y0282776
X0027854Y0313484
X0066929Y0279528
X0060138Y0269193
X0059941Y0252264
X0057252Y0221799
Y021698
X0075098Y0226083
X0091339Y0228346
X0099213
X010315
X0106693
X010515Y0220472
X010115
X0093307
X0099606Y0234154
X0089665Y02375
X0085925Y0262697
X0086614Y0271654
X0105512Y0282776
X0104232Y0253543
X0125197Y0261319
X0120472Y0226772
X0170965Y0231496
X017126Y0218209
X0184252Y0232283
X0194882Y0232087
X02Y0242913
X0210236Y022874
X0177953Y0239764
X0184941Y0254528
X0172835Y0263976
X0163484Y0274508
X0144488Y0282776
X0183169
X0202165Y0272933
X010315Y0313484
X0223721Y0282776
X0240158Y0268209
Y0249213
X0214272Y0225394
T02
X0129134Y0061024
X020099Y0161609
T03
X0225902Y0178591
Y0188591
Y0198591
X0031653Y0195669
X0021654
Y0185669
X0031653
Y0175669
X0021654
Y0165669
X0031653
Y0155669
X0021654
Y0145669
X0031653
Y0135669
X0021654
Y0125669
X0031653
Y0115669
Y0105669
X0021654
Y0115669
Y0095669
X0031653
Y0085669
X0021654
X0045039Y0300394
X0055039
X0065039
X0075039
X0085039
X0225902Y0267091
Y025709
Y024259
Y0232591
Y022259
Y0212591
T04
X019685Y0021654
X0214173
T06
X0105979Y0018
X0125664Y00175
T07
X0070866Y0015748
X0232283Y0133858
X0015748Y030315
X0232283
M30
