G04*
G04 #@! TF.GenerationSoftware,Altium Limited,Altium Designer,24.3.1 (35)*
G04*
G04 Layer_Color=128*
%FSLAX25Y25*%
%MOIN*%
G70*
G04*
G04 #@! TF.SameCoordinates,CBDEA9DE-FB5E-4B32-9C3F-323BEE311ABC*
G04*
G04*
G04 #@! TF.FilePolarity,Positive*
G04*
G01*
G75*
%ADD10C,0.00500*%
D10*
X103223Y18000D02*
X108735D01*
X105979Y15244D02*
Y20756D01*
X122908Y17500D02*
X128420D01*
X125664Y14744D02*
Y20256D01*
X224502Y267091D02*
X227302D01*
X225902Y265690D02*
Y268491D01*
X224502Y257090D02*
X227302D01*
X225902Y255691D02*
Y258490D01*
X30253Y105669D02*
X33053D01*
X31653Y104269D02*
Y107069D01*
X20254Y195669D02*
X23054D01*
X21654Y194269D02*
Y197069D01*
X30253Y195669D02*
X33053D01*
X31653Y194269D02*
Y197069D01*
X20254Y185669D02*
X23054D01*
X21654Y184269D02*
Y187069D01*
X30253Y185669D02*
X33053D01*
X31653Y184269D02*
Y187069D01*
X20254Y175669D02*
X23054D01*
X21654Y174269D02*
Y177069D01*
X30253Y175669D02*
X33053D01*
X31653Y174269D02*
Y177069D01*
X20254Y165669D02*
X23054D01*
X21654Y164269D02*
Y167069D01*
X30253Y165669D02*
X33053D01*
X31653Y164269D02*
Y167069D01*
X20254Y155669D02*
X23054D01*
X21654Y154269D02*
Y157069D01*
X30253Y155669D02*
X33053D01*
X31653Y154269D02*
Y157069D01*
X20254Y145669D02*
X23054D01*
X21654Y144269D02*
Y147069D01*
X30253Y145669D02*
X33053D01*
X31653Y144269D02*
Y147069D01*
X20254Y135669D02*
X23054D01*
X21654Y134269D02*
Y137069D01*
X30253Y135669D02*
X33053D01*
X31653Y134269D02*
Y137069D01*
X20254Y125669D02*
X23054D01*
X21654Y124269D02*
Y127069D01*
X30253Y125669D02*
X33053D01*
X31653Y124269D02*
Y127069D01*
X20254Y115669D02*
X23054D01*
X21654Y114269D02*
Y117069D01*
X30253Y115669D02*
X33053D01*
X31653Y114269D02*
Y117069D01*
X20254Y105669D02*
X23054D01*
X21654Y104269D02*
Y107069D01*
X20254Y95669D02*
X23054D01*
X21654Y94269D02*
Y97069D01*
X30253Y95669D02*
X33053D01*
X31653Y94269D02*
Y97069D01*
X20254Y85669D02*
X23054D01*
X21654Y84269D02*
Y87069D01*
X30253Y85669D02*
X33053D01*
X31653Y84269D02*
Y87069D01*
X226181Y303150D02*
X238386D01*
X232283Y297047D02*
Y309252D01*
X9646Y303150D02*
X21850D01*
X15748Y297047D02*
Y309252D01*
X83639Y300394D02*
X86439D01*
X85039Y298994D02*
Y301794D01*
X73639Y300394D02*
X76439D01*
X75039Y298994D02*
Y301794D01*
X63639Y300394D02*
X66439D01*
X65039Y298994D02*
Y301794D01*
X53639Y300394D02*
X56439D01*
X55039Y298994D02*
Y301794D01*
X43639Y300394D02*
X46439D01*
X45039Y298994D02*
Y301794D01*
X42488Y43701D02*
X46488D01*
X44488Y41701D02*
Y45701D01*
X23984Y31890D02*
X27984D01*
X25984Y29890D02*
Y33890D01*
X23984Y55512D02*
X27984D01*
X25984Y53512D02*
Y57512D01*
X224502Y198591D02*
X227302D01*
X225902Y197190D02*
Y199990D01*
X224502Y188591D02*
X227302D01*
X225902Y187190D02*
Y189990D01*
X224502Y178591D02*
X227302D01*
X225902Y177190D02*
Y179990D01*
X226181Y133858D02*
X238386D01*
X232283Y127756D02*
Y139961D01*
X224502Y242590D02*
X227302D01*
X225902Y241191D02*
Y243990D01*
X224502Y232591D02*
X227302D01*
X225902Y231190D02*
Y233991D01*
X224502Y222590D02*
X227302D01*
X225902Y221191D02*
Y223991D01*
X224502Y212591D02*
X227302D01*
X225902Y211191D02*
Y213990D01*
X64764Y15748D02*
X76968D01*
X70866Y9646D02*
Y21850D01*
X195100Y21654D02*
X198600D01*
X196850Y19904D02*
Y23404D01*
X212423Y21654D02*
X215923D01*
X214173Y19904D02*
Y23404D01*
X99794Y105512D02*
X100994D01*
X100394Y104912D02*
Y106112D01*
X90345Y111417D02*
X91545D01*
X90945Y110817D02*
Y112017D01*
X66329Y279528D02*
X67529D01*
X66929Y278928D02*
Y280128D01*
X99006Y234154D02*
X100206D01*
X99606Y233554D02*
Y234753D01*
X89065Y237500D02*
X90265D01*
X89665Y236900D02*
Y238100D01*
X90935Y131299D02*
X92135D01*
X91535Y130699D02*
Y131899D01*
X113868Y131299D02*
X115068D01*
X114469Y130699D02*
Y131899D01*
X215050Y81988D02*
X216250D01*
X215650Y81388D02*
Y82588D01*
X95365Y201961D02*
X96565D01*
X95965Y201361D02*
Y202561D01*
X104124Y184744D02*
X105324D01*
X104724Y184144D02*
Y185344D01*
X92707Y194882D02*
X93907D01*
X93307Y194282D02*
Y195482D01*
X96644Y194882D02*
X97844D01*
X97244Y194282D02*
Y195482D01*
X126959Y184646D02*
X128159D01*
X127559Y184046D02*
Y185246D01*
X118298Y170866D02*
X119498D01*
X118898Y170266D02*
Y171466D01*
X124597Y261319D02*
X125797D01*
X125197Y260719D02*
Y261919D01*
X143888Y282776D02*
X145088D01*
X144488Y282176D02*
Y283376D01*
X162884Y274508D02*
X164084D01*
X163484Y273908D02*
Y275108D01*
X239558Y268209D02*
X240757D01*
X240158Y267609D02*
Y268809D01*
X223120Y282776D02*
X224321D01*
X223721Y282176D02*
Y283376D01*
X201565Y272933D02*
X202765D01*
X202165Y272333D02*
Y273533D01*
X182569Y282776D02*
X183769D01*
X183169Y282176D02*
Y283376D01*
X172235Y263976D02*
X173435D01*
X172835Y263376D02*
Y264576D01*
X213672Y225394D02*
X214872D01*
X214272Y224794D02*
Y225994D01*
X194282Y232087D02*
X195482D01*
X194882Y231487D02*
Y232687D01*
X239558Y249213D02*
X240757D01*
X240158Y248613D02*
Y249813D01*
X239558Y206004D02*
X240757D01*
X240158Y205404D02*
Y206604D01*
X239558Y151969D02*
X240757D01*
X240158Y151368D02*
Y152568D01*
X239558Y182382D02*
X240757D01*
X240158Y181782D02*
Y182982D01*
X217609Y169882D02*
X218809D01*
X218209Y169282D02*
Y170482D01*
X211506Y142520D02*
X212706D01*
X212106Y141920D02*
Y143120D01*
X173317Y191240D02*
X174517D01*
X173917Y190640D02*
Y191840D01*
X173317Y179035D02*
X174517D01*
X173917Y178435D02*
Y179635D01*
X182963Y170571D02*
X184163D01*
X183563Y169971D02*
Y171171D01*
X213672Y204921D02*
X214872D01*
X214272Y204321D02*
Y205521D01*
X191526Y202559D02*
X192726D01*
X192126Y201959D02*
Y203159D01*
X173120Y202854D02*
X174320D01*
X173721Y202254D02*
Y203454D01*
X170660Y218209D02*
X171860D01*
X171260Y217609D02*
Y218809D01*
X170365Y231496D02*
X171565D01*
X170965Y230896D02*
Y232096D01*
X177353Y239764D02*
X178553D01*
X177953Y239164D02*
Y240364D01*
X47825Y252264D02*
X49025D01*
X48425Y251664D02*
Y252864D01*
X59341Y252264D02*
X60541D01*
X59941Y251664D02*
Y252864D01*
X74498Y226083D02*
X75698D01*
X75098Y225483D02*
Y226683D01*
X83258Y184941D02*
X84458D01*
X83858Y184341D02*
Y185541D01*
X128042Y40846D02*
X129242D01*
X128642Y40246D02*
Y41447D01*
X115246Y40846D02*
X116446D01*
X115847Y40246D02*
Y41447D01*
X73219Y72244D02*
X74419D01*
X73819Y71644D02*
Y72844D01*
X19380Y73032D02*
X20580D01*
X19980Y72431D02*
Y73632D01*
X3731Y18406D02*
X4931D01*
X4331Y17806D02*
Y19005D01*
X3337Y61811D02*
X4537D01*
X3937Y61211D02*
Y62411D01*
X155994Y98622D02*
X157194D01*
X156595Y98022D02*
Y99222D01*
X161506Y132776D02*
X162706D01*
X162106Y132176D02*
Y133376D01*
X153928Y158268D02*
X155128D01*
X154528Y157668D02*
Y158868D01*
X185424Y145669D02*
X186624D01*
X186024Y145069D02*
Y146269D01*
X219676Y108957D02*
X220876D01*
X220276Y108357D02*
Y109557D01*
X194676Y114075D02*
X195876D01*
X195276Y113475D02*
Y114675D01*
X194676Y89862D02*
X195876D01*
X195276Y89262D02*
Y90462D01*
X239558Y89173D02*
X240757D01*
X240158Y88573D02*
Y89773D01*
X239558Y60827D02*
X240757D01*
X240158Y60227D02*
Y61427D01*
X193987Y65354D02*
X195187D01*
X194587Y64754D02*
Y65954D01*
X223219Y40846D02*
X224419D01*
X223819Y40246D02*
Y41447D01*
X206782Y40846D02*
X207982D01*
X207382Y40246D02*
Y41447D01*
X239558Y18406D02*
X240757D01*
X240158Y17806D02*
Y19005D01*
X165345Y18406D02*
X166545D01*
X165945Y17806D02*
Y19005D01*
X141821Y18406D02*
X143021D01*
X142421Y17806D02*
Y19005D01*
X164558Y40846D02*
X165758D01*
X165157Y40246D02*
Y41447D01*
X152746Y64075D02*
X153946D01*
X153347Y63475D02*
Y64675D01*
X127058Y102264D02*
X128258D01*
X127657Y101664D02*
Y102864D01*
X127648Y81201D02*
X128848D01*
X128248Y80601D02*
Y81801D01*
X107372Y71752D02*
X108572D01*
X107972Y71152D02*
Y72352D01*
X102254Y40846D02*
X103454D01*
X102854Y40246D02*
Y41447D01*
X86113Y18406D02*
X87313D01*
X86713Y17806D02*
Y19005D01*
X57176Y18406D02*
X58376D01*
X57776Y17806D02*
Y19005D01*
X58258Y40846D02*
X59458D01*
X58858Y40246D02*
Y41447D01*
X184341Y254528D02*
X185541D01*
X184941Y253928D02*
Y255128D01*
X102550Y313484D02*
X103750D01*
X103150Y312884D02*
Y314084D01*
X27254Y313484D02*
X28454D01*
X27854Y312884D02*
Y314084D01*
X7176Y282776D02*
X8376D01*
X7776Y282176D02*
Y283376D01*
X104912Y282776D02*
X106112D01*
X105512Y282176D02*
Y283376D01*
X103632Y253543D02*
X104832D01*
X104232Y252943D02*
Y254143D01*
X85325Y262697D02*
X86525D01*
X85925Y262097D02*
Y263297D01*
X59538Y269193D02*
X60738D01*
X60138Y268593D02*
Y269793D01*
X16526Y269390D02*
X17726D01*
X17126Y268790D02*
Y269990D01*
X18199Y226083D02*
X19399D01*
X18799Y225483D02*
Y226683D01*
X40345Y205610D02*
X41545D01*
X40945Y205010D02*
Y206210D01*
X49498Y193209D02*
X50698D01*
X50098Y192609D02*
Y193809D01*
X54321Y156496D02*
X55521D01*
X54921Y155896D02*
Y157096D01*
X77550Y155217D02*
X78750D01*
X78150Y154616D02*
Y155816D01*
X114361Y202915D02*
X115561D01*
X114961Y202315D02*
Y203515D01*
X183652Y232283D02*
X184852D01*
X184252Y231683D02*
Y232884D01*
X108575Y187008D02*
X109775D01*
X109175Y186408D02*
Y187608D01*
X94644Y187008D02*
X95844D01*
X95244Y186408D02*
Y187608D01*
X97333Y181102D02*
X98533D01*
X97933Y180502D02*
Y181702D01*
X100550Y220472D02*
X101750D01*
X101150Y219872D02*
Y221072D01*
X106093Y228346D02*
X107293D01*
X106693Y227747D02*
Y228946D01*
X109246Y194910D02*
X110446D01*
X109846Y194309D02*
Y195510D01*
X110555Y184383D02*
X111755D01*
X111155Y183783D02*
Y184984D01*
X98644Y187008D02*
X99844D01*
X99244Y186408D02*
Y187608D01*
X106880Y206693D02*
X108080D01*
X107480Y206093D02*
Y207293D01*
X104550Y220472D02*
X105750D01*
X105150Y219872D02*
Y221072D01*
X92707Y220472D02*
X93907D01*
X93307Y219872D02*
Y221072D01*
X112786Y187008D02*
X113986D01*
X113386Y186408D02*
Y187608D01*
X100581Y194882D02*
X101781D01*
X101181Y194282D02*
Y195482D01*
X98613Y228346D02*
X99813D01*
X99213Y227747D02*
Y228946D01*
X90739Y228346D02*
X91939D01*
X91339Y227747D02*
Y228946D01*
X102550Y228346D02*
X103750D01*
X103150Y227747D02*
Y228946D01*
X119872Y226772D02*
X121072D01*
X120472Y226172D02*
Y227372D01*
X86014Y271654D02*
X87214D01*
X86614Y271054D02*
Y272253D01*
X199400Y242913D02*
X200600D01*
X200000Y242313D02*
Y243513D01*
X209636Y228740D02*
X210836D01*
X210236Y228140D02*
Y229340D01*
X99794Y203937D02*
X100994D01*
X100394Y203337D02*
Y204537D01*
X104912Y209449D02*
X106112D01*
X105512Y208849D02*
Y210049D01*
X123022Y198819D02*
X124222D01*
X123622Y198219D02*
Y199419D01*
X123022Y196063D02*
X124222D01*
X123622Y195463D02*
Y196663D01*
X199990Y161609D02*
X201990D01*
X200990Y160609D02*
Y162609D01*
X128134Y61024D02*
X130134D01*
X129134Y60024D02*
Y62024D01*
X56652Y221799D02*
X57852D01*
X57252Y221199D02*
Y222399D01*
X56652Y216980D02*
X57852D01*
X57252Y216380D02*
Y217580D01*
X52845Y221752D02*
X54045D01*
X53445Y221152D02*
Y222352D01*
X52845Y211980D02*
X54045D01*
X53445Y211380D02*
Y212580D01*
X97333Y174802D02*
X98533D01*
X97933Y174202D02*
Y175402D01*
X186802Y73228D02*
X188002D01*
X187402Y72628D02*
Y73828D01*
X204912Y75984D02*
X206112D01*
X205512Y75384D02*
Y76584D01*
X199794Y75984D02*
X200994D01*
X200394Y75384D02*
Y76584D01*
X215148Y68110D02*
X216348D01*
X215748Y67510D02*
Y68710D01*
M02*
