G04*
G04 #@! TF.GenerationSoftware,Altium Limited,Altium Designer,24.3.1 (35)*
G04*
G04 Layer_Color=2752767*
%FSLAX25Y25*%
%MOIN*%
G70*
G04*
G04 #@! TF.SameCoordinates,CBDEA9DE-FB5E-4B32-9C3F-323BEE311ABC*
G04*
G04*
G04 #@! TF.FilePolarity,Positive*
G04*
G01*
G75*
%ADD10C,0.00500*%
%ADD81C,0.00667*%
D10*
X223902Y265090D02*
X224902Y267091D01*
X223902Y269091D01*
X225902Y268091D01*
X227902Y269091D01*
X226902Y267091D01*
X227902Y265090D01*
X225902Y266090D01*
X223902Y265090D01*
Y255090D02*
X224902Y257090D01*
X223902Y259090D01*
X225902Y258090D01*
X227902Y259090D01*
X226902Y257090D01*
X227902Y255090D01*
X225902Y256090D01*
X223902Y255090D01*
X29653Y103669D02*
X30654Y105669D01*
X29653Y107669D01*
X31653Y106669D01*
X33654Y107669D01*
X32653Y105669D01*
X33654Y103669D01*
X31653Y104669D01*
X29653Y103669D01*
X19654Y193669D02*
X20653Y195669D01*
X19654Y197669D01*
X21654Y196669D01*
X23653Y197669D01*
X22654Y195669D01*
X23653Y193669D01*
X21654Y194669D01*
X19654Y193669D01*
X29653D02*
X30654Y195669D01*
X29653Y197669D01*
X31653Y196669D01*
X33654Y197669D01*
X32653Y195669D01*
X33654Y193669D01*
X31653Y194669D01*
X29653Y193669D01*
X19654Y183669D02*
X20653Y185669D01*
X19654Y187669D01*
X21654Y186669D01*
X23653Y187669D01*
X22654Y185669D01*
X23653Y183669D01*
X21654Y184669D01*
X19654Y183669D01*
X29653D02*
X30654Y185669D01*
X29653Y187669D01*
X31653Y186669D01*
X33654Y187669D01*
X32653Y185669D01*
X33654Y183669D01*
X31653Y184669D01*
X29653Y183669D01*
X19654Y173669D02*
X20653Y175669D01*
X19654Y177669D01*
X21654Y176669D01*
X23653Y177669D01*
X22654Y175669D01*
X23653Y173669D01*
X21654Y174669D01*
X19654Y173669D01*
X29653D02*
X30654Y175669D01*
X29653Y177669D01*
X31653Y176669D01*
X33654Y177669D01*
X32653Y175669D01*
X33654Y173669D01*
X31653Y174669D01*
X29653Y173669D01*
X19654Y163669D02*
X20653Y165669D01*
X19654Y167669D01*
X21654Y166669D01*
X23653Y167669D01*
X22654Y165669D01*
X23653Y163669D01*
X21654Y164669D01*
X19654Y163669D01*
X29653D02*
X30654Y165669D01*
X29653Y167669D01*
X31653Y166669D01*
X33654Y167669D01*
X32653Y165669D01*
X33654Y163669D01*
X31653Y164669D01*
X29653Y163669D01*
X19654Y153669D02*
X20653Y155669D01*
X19654Y157669D01*
X21654Y156669D01*
X23653Y157669D01*
X22654Y155669D01*
X23653Y153669D01*
X21654Y154669D01*
X19654Y153669D01*
X29653D02*
X30654Y155669D01*
X29653Y157669D01*
X31653Y156669D01*
X33654Y157669D01*
X32653Y155669D01*
X33654Y153669D01*
X31653Y154669D01*
X29653Y153669D01*
X19654Y143669D02*
X20653Y145669D01*
X19654Y147669D01*
X21654Y146669D01*
X23653Y147669D01*
X22654Y145669D01*
X23653Y143669D01*
X21654Y144669D01*
X19654Y143669D01*
X29653D02*
X30654Y145669D01*
X29653Y147669D01*
X31653Y146669D01*
X33654Y147669D01*
X32653Y145669D01*
X33654Y143669D01*
X31653Y144669D01*
X29653Y143669D01*
X19654Y133669D02*
X20653Y135669D01*
X19654Y137669D01*
X21654Y136669D01*
X23653Y137669D01*
X22654Y135669D01*
X23653Y133669D01*
X21654Y134669D01*
X19654Y133669D01*
X29653D02*
X30654Y135669D01*
X29653Y137669D01*
X31653Y136669D01*
X33654Y137669D01*
X32653Y135669D01*
X33654Y133669D01*
X31653Y134669D01*
X29653Y133669D01*
X19654Y123669D02*
X20653Y125669D01*
X19654Y127669D01*
X21654Y126669D01*
X23653Y127669D01*
X22654Y125669D01*
X23653Y123669D01*
X21654Y124669D01*
X19654Y123669D01*
X29653D02*
X30654Y125669D01*
X29653Y127669D01*
X31653Y126669D01*
X33654Y127669D01*
X32653Y125669D01*
X33654Y123669D01*
X31653Y124669D01*
X29653Y123669D01*
X19654Y113669D02*
X20653Y115669D01*
X19654Y117669D01*
X21654Y116669D01*
X23653Y117669D01*
X22654Y115669D01*
X23653Y113669D01*
X21654Y114669D01*
X19654Y113669D01*
X29653D02*
X30654Y115669D01*
X29653Y117669D01*
X31653Y116669D01*
X33654Y117669D01*
X32653Y115669D01*
X33654Y113669D01*
X31653Y114669D01*
X29653Y113669D01*
X19654Y103669D02*
X20653Y105669D01*
X19654Y107669D01*
X21654Y106669D01*
X23653Y107669D01*
X22654Y105669D01*
X23653Y103669D01*
X21654Y104669D01*
X19654Y103669D01*
Y93669D02*
X20653Y95669D01*
X19654Y97669D01*
X21654Y96669D01*
X23653Y97669D01*
X22654Y95669D01*
X23653Y93669D01*
X21654Y94669D01*
X19654Y93669D01*
X29653D02*
X30654Y95669D01*
X29653Y97669D01*
X31653Y96669D01*
X33654Y97669D01*
X32653Y95669D01*
X33654Y93669D01*
X31653Y94669D01*
X29653Y93669D01*
X19654Y83669D02*
X20653Y85669D01*
X19654Y87669D01*
X21654Y86669D01*
X23653Y87669D01*
X22654Y85669D01*
X23653Y83669D01*
X21654Y84669D01*
X19654Y83669D01*
X29653D02*
X30654Y85669D01*
X29653Y87669D01*
X31653Y86669D01*
X33654Y87669D01*
X32653Y85669D01*
X33654Y83669D01*
X31653Y84669D01*
X29653Y83669D01*
X230283Y301150D02*
Y305150D01*
X234283D01*
Y301150D01*
X230283D01*
X231083Y301950D02*
Y304350D01*
X233484D01*
Y301950D01*
X231083D01*
X13748Y301150D02*
Y305150D01*
X17748D01*
Y301150D01*
X13748D01*
X14548Y301950D02*
Y304350D01*
X16948D01*
Y301950D01*
X14548D01*
X83039Y298394D02*
X84039Y300394D01*
X83039Y302394D01*
X85039Y301394D01*
X87039Y302394D01*
X86039Y300394D01*
X87039Y298394D01*
X85039Y299394D01*
X83039Y298394D01*
X73039D02*
X74039Y300394D01*
X73039Y302394D01*
X75039Y301394D01*
X77039Y302394D01*
X76039Y300394D01*
X77039Y298394D01*
X75039Y299394D01*
X73039Y298394D01*
X63039D02*
X64039Y300394D01*
X63039Y302394D01*
X65039Y301394D01*
X67039Y302394D01*
X66039Y300394D01*
X67039Y298394D01*
X65039Y299394D01*
X63039Y298394D01*
X53039D02*
X54039Y300394D01*
X53039Y302394D01*
X55039Y301394D01*
X57039Y302394D01*
X56039Y300394D01*
X57039Y298394D01*
X55039Y299394D01*
X53039Y298394D01*
X43039D02*
X44039Y300394D01*
X43039Y302394D01*
X45039Y301394D01*
X47039Y302394D01*
X46039Y300394D01*
X47039Y298394D01*
X45039Y299394D01*
X43039Y298394D01*
X44488Y41701D02*
X45488Y42701D01*
X46488D01*
X45488Y43701D01*
X46488Y44701D01*
X45488D01*
X44488Y45701D01*
X43488Y44701D01*
X42488D01*
X43488Y43701D01*
X42488Y42701D01*
X43488D01*
X44488Y41701D01*
X25984Y29890D02*
X26984Y30890D01*
X27984D01*
X26984Y31890D01*
X27984Y32890D01*
X26984D01*
X25984Y33890D01*
X24984Y32890D01*
X23984D01*
X24984Y31890D01*
X23984Y30890D01*
X24984D01*
X25984Y29890D01*
Y53512D02*
X23984Y57512D01*
X27984D01*
X25984Y53512D01*
X223902Y196590D02*
X224902Y198591D01*
X223902Y200590D01*
X225902Y199591D01*
X227902Y200590D01*
X226902Y198591D01*
X227902Y196590D01*
X225902Y197590D01*
X223902Y196590D01*
Y186591D02*
X224902Y188591D01*
X223902Y190591D01*
X225902Y189591D01*
X227902Y190591D01*
X226902Y188591D01*
X227902Y186591D01*
X225902Y187591D01*
X223902Y186591D01*
Y176591D02*
X224902Y178591D01*
X223902Y180590D01*
X225902Y179590D01*
X227902Y180590D01*
X226902Y178591D01*
X227902Y176591D01*
X225902Y177591D01*
X223902Y176591D01*
X230283Y131858D02*
Y135858D01*
X234283D01*
Y131858D01*
X230283D01*
X231083Y132658D02*
Y135058D01*
X233484D01*
Y132658D01*
X231083D01*
X223902Y240591D02*
X224902Y242590D01*
X223902Y244590D01*
X225902Y243590D01*
X227902Y244590D01*
X226902Y242590D01*
X227902Y240591D01*
X225902Y241590D01*
X223902Y240591D01*
Y230591D02*
X224902Y232591D01*
X223902Y234591D01*
X225902Y233591D01*
X227902Y234591D01*
X226902Y232591D01*
X227902Y230591D01*
X225902Y231591D01*
X223902Y230591D01*
Y220590D02*
X224902Y222590D01*
X223902Y224590D01*
X225902Y223590D01*
X227902Y224590D01*
X226902Y222590D01*
X227902Y220590D01*
X225902Y221590D01*
X223902Y220590D01*
Y210591D02*
X224902Y212591D01*
X223902Y214591D01*
X225902Y213591D01*
X227902Y214591D01*
X226902Y212591D01*
X227902Y210591D01*
X225902Y211591D01*
X223902Y210591D01*
X68866Y13748D02*
Y17748D01*
X72866D01*
Y13748D01*
X68866D01*
X69666Y14548D02*
Y16948D01*
X72066D01*
Y14548D01*
X69666D01*
X194850Y19654D02*
Y23653D01*
X198850D01*
Y19654D01*
X194850D01*
X212173D02*
Y23653D01*
X216173D01*
Y19654D01*
X212173D01*
X99394Y104512D02*
Y103512D01*
X101394D01*
Y104512D01*
X102394D01*
Y106512D01*
X101394D01*
Y107512D01*
X99394D01*
Y106512D01*
X98394D01*
Y104512D01*
X99394D01*
X89945Y110417D02*
Y109417D01*
X91945D01*
Y110417D01*
X92945D01*
Y112417D01*
X91945D01*
Y113417D01*
X89945D01*
Y112417D01*
X88945D01*
Y110417D01*
X89945D01*
X65929Y278528D02*
Y277528D01*
X67929D01*
Y278528D01*
X68929D01*
Y280528D01*
X67929D01*
Y281528D01*
X65929D01*
Y280528D01*
X64929D01*
Y278528D01*
X65929D01*
X98606Y233154D02*
Y232154D01*
X100606D01*
Y233154D01*
X101606D01*
Y235154D01*
X100606D01*
Y236154D01*
X98606D01*
Y235154D01*
X97606D01*
Y233154D01*
X98606D01*
X88665Y236500D02*
Y235500D01*
X90665D01*
Y236500D01*
X91665D01*
Y238500D01*
X90665D01*
Y239500D01*
X88665D01*
Y238500D01*
X87665D01*
Y236500D01*
X88665D01*
X90535Y130299D02*
Y129299D01*
X92535D01*
Y130299D01*
X93535D01*
Y132299D01*
X92535D01*
Y133299D01*
X90535D01*
Y132299D01*
X89535D01*
Y130299D01*
X90535D01*
X113469D02*
Y129299D01*
X115469D01*
Y130299D01*
X116469D01*
Y132299D01*
X115469D01*
Y133299D01*
X113469D01*
Y132299D01*
X112469D01*
Y130299D01*
X113469D01*
X214650Y80988D02*
Y79988D01*
X216650D01*
Y80988D01*
X217650D01*
Y82988D01*
X216650D01*
Y83988D01*
X214650D01*
Y82988D01*
X213650D01*
Y80988D01*
X214650D01*
X94965Y200961D02*
Y199961D01*
X96965D01*
Y200961D01*
X97965D01*
Y202961D01*
X96965D01*
Y203961D01*
X94965D01*
Y202961D01*
X93965D01*
Y200961D01*
X94965D01*
X103724Y183744D02*
Y182744D01*
X105724D01*
Y183744D01*
X106724D01*
Y185744D01*
X105724D01*
Y186744D01*
X103724D01*
Y185744D01*
X102724D01*
Y183744D01*
X103724D01*
X92307Y193882D02*
Y192882D01*
X94307D01*
Y193882D01*
X95307D01*
Y195882D01*
X94307D01*
Y196882D01*
X92307D01*
Y195882D01*
X91307D01*
Y193882D01*
X92307D01*
X96244D02*
Y192882D01*
X98244D01*
Y193882D01*
X99244D01*
Y195882D01*
X98244D01*
Y196882D01*
X96244D01*
Y195882D01*
X95244D01*
Y193882D01*
X96244D01*
X126559Y183646D02*
Y182646D01*
X128559D01*
Y183646D01*
X129559D01*
Y185646D01*
X128559D01*
Y186646D01*
X126559D01*
Y185646D01*
X125559D01*
Y183646D01*
X126559D01*
X117898Y169866D02*
Y168866D01*
X119898D01*
Y169866D01*
X120898D01*
Y171866D01*
X119898D01*
Y172866D01*
X117898D01*
Y171866D01*
X116898D01*
Y169866D01*
X117898D01*
X124197Y260319D02*
Y259319D01*
X126197D01*
Y260319D01*
X127197D01*
Y262319D01*
X126197D01*
Y263319D01*
X124197D01*
Y262319D01*
X123197D01*
Y260319D01*
X124197D01*
X143488Y281776D02*
Y280776D01*
X145488D01*
Y281776D01*
X146488D01*
Y283776D01*
X145488D01*
Y284776D01*
X143488D01*
Y283776D01*
X142488D01*
Y281776D01*
X143488D01*
X162484Y273508D02*
Y272508D01*
X164484D01*
Y273508D01*
X165484D01*
Y275508D01*
X164484D01*
Y276508D01*
X162484D01*
Y275508D01*
X161484D01*
Y273508D01*
X162484D01*
X239158Y267209D02*
Y266209D01*
X241158D01*
Y267209D01*
X242158D01*
Y269209D01*
X241158D01*
Y270209D01*
X239158D01*
Y269209D01*
X238158D01*
Y267209D01*
X239158D01*
X222721Y281776D02*
Y280776D01*
X224721D01*
Y281776D01*
X225721D01*
Y283776D01*
X224721D01*
Y284776D01*
X222721D01*
Y283776D01*
X221721D01*
Y281776D01*
X222721D01*
X201165Y271933D02*
Y270933D01*
X203165D01*
Y271933D01*
X204165D01*
Y273933D01*
X203165D01*
Y274933D01*
X201165D01*
Y273933D01*
X200165D01*
Y271933D01*
X201165D01*
X182169Y281776D02*
Y280776D01*
X184169D01*
Y281776D01*
X185169D01*
Y283776D01*
X184169D01*
Y284776D01*
X182169D01*
Y283776D01*
X181169D01*
Y281776D01*
X182169D01*
X171835Y262976D02*
Y261976D01*
X173835D01*
Y262976D01*
X174835D01*
Y264976D01*
X173835D01*
Y265976D01*
X171835D01*
Y264976D01*
X170835D01*
Y262976D01*
X171835D01*
X213272Y224394D02*
Y223394D01*
X215272D01*
Y224394D01*
X216272D01*
Y226394D01*
X215272D01*
Y227394D01*
X213272D01*
Y226394D01*
X212272D01*
Y224394D01*
X213272D01*
X193882Y231087D02*
Y230087D01*
X195882D01*
Y231087D01*
X196882D01*
Y233087D01*
X195882D01*
Y234087D01*
X193882D01*
Y233087D01*
X192882D01*
Y231087D01*
X193882D01*
X239158Y248213D02*
Y247213D01*
X241158D01*
Y248213D01*
X242158D01*
Y250213D01*
X241158D01*
Y251213D01*
X239158D01*
Y250213D01*
X238158D01*
Y248213D01*
X239158D01*
Y205004D02*
Y204004D01*
X241158D01*
Y205004D01*
X242158D01*
Y207004D01*
X241158D01*
Y208004D01*
X239158D01*
Y207004D01*
X238158D01*
Y205004D01*
X239158D01*
Y150969D02*
Y149969D01*
X241158D01*
Y150969D01*
X242158D01*
Y152969D01*
X241158D01*
Y153969D01*
X239158D01*
Y152969D01*
X238158D01*
Y150969D01*
X239158D01*
Y181382D02*
Y180382D01*
X241158D01*
Y181382D01*
X242158D01*
Y183382D01*
X241158D01*
Y184382D01*
X239158D01*
Y183382D01*
X238158D01*
Y181382D01*
X239158D01*
X217209Y168882D02*
Y167882D01*
X219209D01*
Y168882D01*
X220209D01*
Y170882D01*
X219209D01*
Y171882D01*
X217209D01*
Y170882D01*
X216209D01*
Y168882D01*
X217209D01*
X211106Y141520D02*
Y140520D01*
X213106D01*
Y141520D01*
X214106D01*
Y143520D01*
X213106D01*
Y144520D01*
X211106D01*
Y143520D01*
X210106D01*
Y141520D01*
X211106D01*
X172917Y190240D02*
Y189240D01*
X174917D01*
Y190240D01*
X175917D01*
Y192240D01*
X174917D01*
Y193240D01*
X172917D01*
Y192240D01*
X171917D01*
Y190240D01*
X172917D01*
Y178035D02*
Y177035D01*
X174917D01*
Y178035D01*
X175917D01*
Y180035D01*
X174917D01*
Y181035D01*
X172917D01*
Y180035D01*
X171917D01*
Y178035D01*
X172917D01*
X182563Y169571D02*
Y168571D01*
X184563D01*
Y169571D01*
X185563D01*
Y171571D01*
X184563D01*
Y172571D01*
X182563D01*
Y171571D01*
X181563D01*
Y169571D01*
X182563D01*
X213272Y203921D02*
Y202921D01*
X215272D01*
Y203921D01*
X216272D01*
Y205921D01*
X215272D01*
Y206921D01*
X213272D01*
Y205921D01*
X212272D01*
Y203921D01*
X213272D01*
X191126Y201559D02*
Y200559D01*
X193126D01*
Y201559D01*
X194126D01*
Y203559D01*
X193126D01*
Y204559D01*
X191126D01*
Y203559D01*
X190126D01*
Y201559D01*
X191126D01*
X172721Y201854D02*
Y200854D01*
X174721D01*
Y201854D01*
X175721D01*
Y203854D01*
X174721D01*
Y204854D01*
X172721D01*
Y203854D01*
X171721D01*
Y201854D01*
X172721D01*
X170260Y217209D02*
Y216209D01*
X172260D01*
Y217209D01*
X173260D01*
Y219209D01*
X172260D01*
Y220209D01*
X170260D01*
Y219209D01*
X169260D01*
Y217209D01*
X170260D01*
X169965Y230496D02*
Y229496D01*
X171965D01*
Y230496D01*
X172965D01*
Y232496D01*
X171965D01*
Y233496D01*
X169965D01*
Y232496D01*
X168965D01*
Y230496D01*
X169965D01*
X176953Y238764D02*
Y237764D01*
X178953D01*
Y238764D01*
X179953D01*
Y240764D01*
X178953D01*
Y241764D01*
X176953D01*
Y240764D01*
X175953D01*
Y238764D01*
X176953D01*
X47425Y251264D02*
Y250264D01*
X49425D01*
Y251264D01*
X50425D01*
Y253264D01*
X49425D01*
Y254264D01*
X47425D01*
Y253264D01*
X46425D01*
Y251264D01*
X47425D01*
X58941D02*
Y250264D01*
X60941D01*
Y251264D01*
X61941D01*
Y253264D01*
X60941D01*
Y254264D01*
X58941D01*
Y253264D01*
X57941D01*
Y251264D01*
X58941D01*
X74098Y225083D02*
Y224083D01*
X76098D01*
Y225083D01*
X77098D01*
Y227083D01*
X76098D01*
Y228083D01*
X74098D01*
Y227083D01*
X73098D01*
Y225083D01*
X74098D01*
X82858Y183941D02*
Y182941D01*
X84858D01*
Y183941D01*
X85858D01*
Y185941D01*
X84858D01*
Y186941D01*
X82858D01*
Y185941D01*
X81858D01*
Y183941D01*
X82858D01*
X127642Y39847D02*
Y38846D01*
X129642D01*
Y39847D01*
X130642D01*
Y41846D01*
X129642D01*
Y42847D01*
X127642D01*
Y41846D01*
X126642D01*
Y39847D01*
X127642D01*
X114847D02*
Y38846D01*
X116847D01*
Y39847D01*
X117847D01*
Y41846D01*
X116847D01*
Y42847D01*
X114847D01*
Y41846D01*
X113847D01*
Y39847D01*
X114847D01*
X72819Y71244D02*
Y70244D01*
X74819D01*
Y71244D01*
X75819D01*
Y73244D01*
X74819D01*
Y74244D01*
X72819D01*
Y73244D01*
X71819D01*
Y71244D01*
X72819D01*
X18980Y72031D02*
Y71031D01*
X20980D01*
Y72031D01*
X21980D01*
Y74032D01*
X20980D01*
Y75032D01*
X18980D01*
Y74032D01*
X17980D01*
Y72031D01*
X18980D01*
X3331Y17405D02*
Y16406D01*
X5331D01*
Y17405D01*
X6331D01*
Y19406D01*
X5331D01*
Y20405D01*
X3331D01*
Y19406D01*
X2331D01*
Y17405D01*
X3331D01*
X2937Y60811D02*
Y59811D01*
X4937D01*
Y60811D01*
X5937D01*
Y62811D01*
X4937D01*
Y63811D01*
X2937D01*
Y62811D01*
X1937D01*
Y60811D01*
X2937D01*
X155595Y97622D02*
Y96622D01*
X157595D01*
Y97622D01*
X158595D01*
Y99622D01*
X157595D01*
Y100622D01*
X155595D01*
Y99622D01*
X154595D01*
Y97622D01*
X155595D01*
X161106Y131776D02*
Y130776D01*
X163106D01*
Y131776D01*
X164106D01*
Y133776D01*
X163106D01*
Y134776D01*
X161106D01*
Y133776D01*
X160106D01*
Y131776D01*
X161106D01*
X153528Y157268D02*
Y156268D01*
X155528D01*
Y157268D01*
X156528D01*
Y159268D01*
X155528D01*
Y160268D01*
X153528D01*
Y159268D01*
X152528D01*
Y157268D01*
X153528D01*
X185024Y144669D02*
Y143669D01*
X187024D01*
Y144669D01*
X188024D01*
Y146669D01*
X187024D01*
Y147669D01*
X185024D01*
Y146669D01*
X184024D01*
Y144669D01*
X185024D01*
X219276Y107957D02*
Y106957D01*
X221276D01*
Y107957D01*
X222276D01*
Y109957D01*
X221276D01*
Y110957D01*
X219276D01*
Y109957D01*
X218276D01*
Y107957D01*
X219276D01*
X194276Y113075D02*
Y112075D01*
X196276D01*
Y113075D01*
X197276D01*
Y115075D01*
X196276D01*
Y116075D01*
X194276D01*
Y115075D01*
X193276D01*
Y113075D01*
X194276D01*
Y88862D02*
Y87862D01*
X196276D01*
Y88862D01*
X197276D01*
Y90862D01*
X196276D01*
Y91862D01*
X194276D01*
Y90862D01*
X193276D01*
Y88862D01*
X194276D01*
X239158Y88173D02*
Y87173D01*
X241158D01*
Y88173D01*
X242158D01*
Y90173D01*
X241158D01*
Y91173D01*
X239158D01*
Y90173D01*
X238158D01*
Y88173D01*
X239158D01*
Y59827D02*
Y58827D01*
X241158D01*
Y59827D01*
X242158D01*
Y61827D01*
X241158D01*
Y62827D01*
X239158D01*
Y61827D01*
X238158D01*
Y59827D01*
X239158D01*
X193587Y64354D02*
Y63354D01*
X195587D01*
Y64354D01*
X196587D01*
Y66354D01*
X195587D01*
Y67354D01*
X193587D01*
Y66354D01*
X192587D01*
Y64354D01*
X193587D01*
X222819Y39847D02*
Y38846D01*
X224819D01*
Y39847D01*
X225819D01*
Y41846D01*
X224819D01*
Y42847D01*
X222819D01*
Y41846D01*
X221819D01*
Y39847D01*
X222819D01*
X206382D02*
Y38846D01*
X208382D01*
Y39847D01*
X209382D01*
Y41846D01*
X208382D01*
Y42847D01*
X206382D01*
Y41846D01*
X205382D01*
Y39847D01*
X206382D01*
X239158Y17405D02*
Y16406D01*
X241158D01*
Y17405D01*
X242158D01*
Y19406D01*
X241158D01*
Y20405D01*
X239158D01*
Y19406D01*
X238158D01*
Y17405D01*
X239158D01*
X164945D02*
Y16406D01*
X166945D01*
Y17405D01*
X167945D01*
Y19406D01*
X166945D01*
Y20405D01*
X164945D01*
Y19406D01*
X163945D01*
Y17405D01*
X164945D01*
X141421D02*
Y16406D01*
X143421D01*
Y17405D01*
X144421D01*
Y19406D01*
X143421D01*
Y20405D01*
X141421D01*
Y19406D01*
X140421D01*
Y17405D01*
X141421D01*
X164157Y39847D02*
Y38846D01*
X166157D01*
Y39847D01*
X167157D01*
Y41846D01*
X166157D01*
Y42847D01*
X164157D01*
Y41846D01*
X163157D01*
Y39847D01*
X164157D01*
X152347Y63075D02*
Y62075D01*
X154347D01*
Y63075D01*
X155347D01*
Y65075D01*
X154347D01*
Y66075D01*
X152347D01*
Y65075D01*
X151347D01*
Y63075D01*
X152347D01*
X126657Y101264D02*
Y100264D01*
X128657D01*
Y101264D01*
X129657D01*
Y103264D01*
X128657D01*
Y104264D01*
X126657D01*
Y103264D01*
X125657D01*
Y101264D01*
X126657D01*
X127248Y80201D02*
Y79201D01*
X129248D01*
Y80201D01*
X130248D01*
Y82201D01*
X129248D01*
Y83201D01*
X127248D01*
Y82201D01*
X126248D01*
Y80201D01*
X127248D01*
X106972Y70752D02*
Y69752D01*
X108972D01*
Y70752D01*
X109972D01*
Y72752D01*
X108972D01*
Y73752D01*
X106972D01*
Y72752D01*
X105972D01*
Y70752D01*
X106972D01*
X101854Y39847D02*
Y38846D01*
X103854D01*
Y39847D01*
X104854D01*
Y41846D01*
X103854D01*
Y42847D01*
X101854D01*
Y41846D01*
X100854D01*
Y39847D01*
X101854D01*
X85713Y17405D02*
Y16406D01*
X87713D01*
Y17405D01*
X88713D01*
Y19406D01*
X87713D01*
Y20405D01*
X85713D01*
Y19406D01*
X84713D01*
Y17405D01*
X85713D01*
X56776D02*
Y16406D01*
X58776D01*
Y17405D01*
X59776D01*
Y19406D01*
X58776D01*
Y20405D01*
X56776D01*
Y19406D01*
X55776D01*
Y17405D01*
X56776D01*
X57858Y39847D02*
Y38846D01*
X59858D01*
Y39847D01*
X60858D01*
Y41846D01*
X59858D01*
Y42847D01*
X57858D01*
Y41846D01*
X56858D01*
Y39847D01*
X57858D01*
X183941Y253528D02*
Y252528D01*
X185941D01*
Y253528D01*
X186941D01*
Y255528D01*
X185941D01*
Y256528D01*
X183941D01*
Y255528D01*
X182941D01*
Y253528D01*
X183941D01*
X102150Y312484D02*
Y311484D01*
X104150D01*
Y312484D01*
X105150D01*
Y314484D01*
X104150D01*
Y315484D01*
X102150D01*
Y314484D01*
X101150D01*
Y312484D01*
X102150D01*
X26854D02*
Y311484D01*
X28854D01*
Y312484D01*
X29854D01*
Y314484D01*
X28854D01*
Y315484D01*
X26854D01*
Y314484D01*
X25854D01*
Y312484D01*
X26854D01*
X6776Y281776D02*
Y280776D01*
X8776D01*
Y281776D01*
X9776D01*
Y283776D01*
X8776D01*
Y284776D01*
X6776D01*
Y283776D01*
X5776D01*
Y281776D01*
X6776D01*
X104512D02*
Y280776D01*
X106512D01*
Y281776D01*
X107512D01*
Y283776D01*
X106512D01*
Y284776D01*
X104512D01*
Y283776D01*
X103512D01*
Y281776D01*
X104512D01*
X103232Y252543D02*
Y251543D01*
X105232D01*
Y252543D01*
X106232D01*
Y254543D01*
X105232D01*
Y255543D01*
X103232D01*
Y254543D01*
X102232D01*
Y252543D01*
X103232D01*
X84925Y261697D02*
Y260697D01*
X86925D01*
Y261697D01*
X87925D01*
Y263697D01*
X86925D01*
Y264697D01*
X84925D01*
Y263697D01*
X83925D01*
Y261697D01*
X84925D01*
X59138Y268193D02*
Y267193D01*
X61138D01*
Y268193D01*
X62138D01*
Y270193D01*
X61138D01*
Y271193D01*
X59138D01*
Y270193D01*
X58138D01*
Y268193D01*
X59138D01*
X16126Y268390D02*
Y267390D01*
X18126D01*
Y268390D01*
X19126D01*
Y270390D01*
X18126D01*
Y271390D01*
X16126D01*
Y270390D01*
X15126D01*
Y268390D01*
X16126D01*
X17799Y225083D02*
Y224083D01*
X19799D01*
Y225083D01*
X20799D01*
Y227083D01*
X19799D01*
Y228083D01*
X17799D01*
Y227083D01*
X16799D01*
Y225083D01*
X17799D01*
X39945Y204610D02*
Y203610D01*
X41945D01*
Y204610D01*
X42945D01*
Y206610D01*
X41945D01*
Y207610D01*
X39945D01*
Y206610D01*
X38945D01*
Y204610D01*
X39945D01*
X49098Y192209D02*
Y191209D01*
X51098D01*
Y192209D01*
X52098D01*
Y194209D01*
X51098D01*
Y195209D01*
X49098D01*
Y194209D01*
X48098D01*
Y192209D01*
X49098D01*
X53921Y155496D02*
Y154496D01*
X55921D01*
Y155496D01*
X56921D01*
Y157496D01*
X55921D01*
Y158496D01*
X53921D01*
Y157496D01*
X52921D01*
Y155496D01*
X53921D01*
X77150Y154217D02*
Y153217D01*
X79150D01*
Y154217D01*
X80150D01*
Y156217D01*
X79150D01*
Y157217D01*
X77150D01*
Y156217D01*
X76150D01*
Y154217D01*
X77150D01*
X113961Y201915D02*
Y200915D01*
X115961D01*
Y201915D01*
X116961D01*
Y203915D01*
X115961D01*
Y204915D01*
X113961D01*
Y203915D01*
X112961D01*
Y201915D01*
X113961D01*
X183252Y231283D02*
Y230283D01*
X185252D01*
Y231283D01*
X186252D01*
Y233283D01*
X185252D01*
Y234283D01*
X183252D01*
Y233283D01*
X182252D01*
Y231283D01*
X183252D01*
X108175Y186008D02*
Y185008D01*
X110175D01*
Y186008D01*
X111175D01*
Y188008D01*
X110175D01*
Y189008D01*
X108175D01*
Y188008D01*
X107175D01*
Y186008D01*
X108175D01*
X94244D02*
Y185008D01*
X96244D01*
Y186008D01*
X97244D01*
Y188008D01*
X96244D01*
Y189008D01*
X94244D01*
Y188008D01*
X93244D01*
Y186008D01*
X94244D01*
X96933Y180102D02*
Y179102D01*
X98933D01*
Y180102D01*
X99933D01*
Y182102D01*
X98933D01*
Y183102D01*
X96933D01*
Y182102D01*
X95933D01*
Y180102D01*
X96933D01*
X100150Y219472D02*
Y218472D01*
X102150D01*
Y219472D01*
X103150D01*
Y221472D01*
X102150D01*
Y222472D01*
X100150D01*
Y221472D01*
X99150D01*
Y219472D01*
X100150D01*
X105693Y227346D02*
Y226346D01*
X107693D01*
Y227346D01*
X108693D01*
Y229346D01*
X107693D01*
Y230346D01*
X105693D01*
Y229346D01*
X104693D01*
Y227346D01*
X105693D01*
X108846Y193910D02*
Y192910D01*
X110846D01*
Y193910D01*
X111846D01*
Y195910D01*
X110846D01*
Y196909D01*
X108846D01*
Y195910D01*
X107846D01*
Y193910D01*
X108846D01*
X110155Y183384D02*
Y182384D01*
X112155D01*
Y183384D01*
X113155D01*
Y185383D01*
X112155D01*
Y186383D01*
X110155D01*
Y185383D01*
X109155D01*
Y183384D01*
X110155D01*
X98244Y186008D02*
Y185008D01*
X100244D01*
Y186008D01*
X101244D01*
Y188008D01*
X100244D01*
Y189008D01*
X98244D01*
Y188008D01*
X97244D01*
Y186008D01*
X98244D01*
X106480Y205693D02*
Y204693D01*
X108480D01*
Y205693D01*
X109480D01*
Y207693D01*
X108480D01*
Y208693D01*
X106480D01*
Y207693D01*
X105480D01*
Y205693D01*
X106480D01*
X104150Y219472D02*
Y218472D01*
X106150D01*
Y219472D01*
X107150D01*
Y221472D01*
X106150D01*
Y222472D01*
X104150D01*
Y221472D01*
X103150D01*
Y219472D01*
X104150D01*
X92307D02*
Y218472D01*
X94307D01*
Y219472D01*
X95307D01*
Y221472D01*
X94307D01*
Y222472D01*
X92307D01*
Y221472D01*
X91307D01*
Y219472D01*
X92307D01*
X112386Y186008D02*
Y185008D01*
X114386D01*
Y186008D01*
X115386D01*
Y188008D01*
X114386D01*
Y189008D01*
X112386D01*
Y188008D01*
X111386D01*
Y186008D01*
X112386D01*
X100181Y193882D02*
Y192882D01*
X102181D01*
Y193882D01*
X103181D01*
Y195882D01*
X102181D01*
Y196882D01*
X100181D01*
Y195882D01*
X99181D01*
Y193882D01*
X100181D01*
X98213Y227346D02*
Y226346D01*
X100213D01*
Y227346D01*
X101213D01*
Y229346D01*
X100213D01*
Y230346D01*
X98213D01*
Y229346D01*
X97213D01*
Y227346D01*
X98213D01*
X90339D02*
Y226346D01*
X92339D01*
Y227346D01*
X93339D01*
Y229346D01*
X92339D01*
Y230346D01*
X90339D01*
Y229346D01*
X89339D01*
Y227346D01*
X90339D01*
X102150D02*
Y226346D01*
X104150D01*
Y227346D01*
X105150D01*
Y229346D01*
X104150D01*
Y230346D01*
X102150D01*
Y229346D01*
X101150D01*
Y227346D01*
X102150D01*
X119472Y225772D02*
Y224772D01*
X121472D01*
Y225772D01*
X122472D01*
Y227772D01*
X121472D01*
Y228772D01*
X119472D01*
Y227772D01*
X118472D01*
Y225772D01*
X119472D01*
X85614Y270654D02*
Y269654D01*
X87614D01*
Y270654D01*
X88614D01*
Y272654D01*
X87614D01*
Y273654D01*
X85614D01*
Y272654D01*
X84614D01*
Y270654D01*
X85614D01*
X199000Y241913D02*
Y240913D01*
X201000D01*
Y241913D01*
X202000D01*
Y243913D01*
X201000D01*
Y244913D01*
X199000D01*
Y243913D01*
X198000D01*
Y241913D01*
X199000D01*
X209236Y227740D02*
Y226740D01*
X211236D01*
Y227740D01*
X212236D01*
Y229740D01*
X211236D01*
Y230740D01*
X209236D01*
Y229740D01*
X208236D01*
Y227740D01*
X209236D01*
X99394Y202937D02*
Y201937D01*
X101394D01*
Y202937D01*
X102394D01*
Y204937D01*
X101394D01*
Y205937D01*
X99394D01*
Y204937D01*
X98394D01*
Y202937D01*
X99394D01*
X104512Y208449D02*
Y207449D01*
X106512D01*
Y208449D01*
X107512D01*
Y210449D01*
X106512D01*
Y211449D01*
X104512D01*
Y210449D01*
X103512D01*
Y208449D01*
X104512D01*
X122622Y197819D02*
Y196819D01*
X124622D01*
Y197819D01*
X125622D01*
Y199819D01*
X124622D01*
Y200819D01*
X122622D01*
Y199819D01*
X121622D01*
Y197819D01*
X122622D01*
Y195063D02*
Y194063D01*
X124622D01*
Y195063D01*
X125622D01*
Y197063D01*
X124622D01*
Y198063D01*
X122622D01*
Y197063D01*
X121622D01*
Y195063D01*
X122622D01*
X198990Y159609D02*
X199990D01*
X200990Y160609D01*
X201990Y159609D01*
X202990D01*
Y160609D01*
X201990Y161609D01*
X202990Y162609D01*
Y163609D01*
X201990D01*
X200990Y162609D01*
X199990Y163609D01*
X198990D01*
Y162609D01*
X199990Y161609D01*
X198990Y160609D01*
Y159609D01*
X127134Y59024D02*
X128134D01*
X129134Y60024D01*
X130134Y59024D01*
X131134D01*
Y60024D01*
X130134Y61024D01*
X131134Y62024D01*
Y63024D01*
X130134D01*
X129134Y62024D01*
X128134Y63024D01*
X127134D01*
Y62024D01*
X128134Y61024D01*
X127134Y60024D01*
Y59024D01*
X56252Y220799D02*
Y219799D01*
X58252D01*
Y220799D01*
X59252D01*
Y222799D01*
X58252D01*
Y223799D01*
X56252D01*
Y222799D01*
X55252D01*
Y220799D01*
X56252D01*
Y215980D02*
Y214980D01*
X58252D01*
Y215980D01*
X59252D01*
Y217980D01*
X58252D01*
Y218980D01*
X56252D01*
Y217980D01*
X55252D01*
Y215980D01*
X56252D01*
X52445Y220752D02*
Y219752D01*
X54445D01*
Y220752D01*
X55445D01*
Y222752D01*
X54445D01*
Y223752D01*
X52445D01*
Y222752D01*
X51445D01*
Y220752D01*
X52445D01*
Y210980D02*
Y209980D01*
X54445D01*
Y210980D01*
X55445D01*
Y212980D01*
X54445D01*
Y213980D01*
X52445D01*
Y212980D01*
X51445D01*
Y210980D01*
X52445D01*
X96933Y173802D02*
Y172802D01*
X98933D01*
Y173802D01*
X99933D01*
Y175802D01*
X98933D01*
Y176802D01*
X96933D01*
Y175802D01*
X95933D01*
Y173802D01*
X96933D01*
X186402Y72228D02*
Y71228D01*
X188402D01*
Y72228D01*
X189402D01*
Y74228D01*
X188402D01*
Y75228D01*
X186402D01*
Y74228D01*
X185402D01*
Y72228D01*
X186402D01*
X204512Y74984D02*
Y73984D01*
X206512D01*
Y74984D01*
X207512D01*
Y76984D01*
X206512D01*
Y77984D01*
X204512D01*
Y76984D01*
X203512D01*
Y74984D01*
X204512D01*
X199394D02*
Y73984D01*
X201394D01*
Y74984D01*
X202394D01*
Y76984D01*
X201394D01*
Y77984D01*
X199394D01*
Y76984D01*
X198394D01*
Y74984D01*
X199394D01*
X214748Y67110D02*
Y66110D01*
X216748D01*
Y67110D01*
X217748D01*
Y69110D01*
X216748D01*
Y70110D01*
X214748D01*
Y69110D01*
X213748D01*
Y67110D01*
X214748D01*
D81*
X107979Y18000D02*
G03*
X107979Y18000I-2000J0D01*
G01*
X127664Y17500D02*
G03*
X127664Y17500I-2000J0D01*
G01*
M02*
