G04*
G04 #@! TF.GenerationSoftware,Altium Limited,Altium Designer,24.3.1 (35)*
G04*
G04 Layer_Color=8388736*
%FSLAX25Y25*%
%MOIN*%
G70*
G04*
G04 #@! TF.SameCoordinates,CBDEA9DE-FB5E-4B32-9C3F-323BEE311ABC*
G04*
G04*
G04 #@! TF.FilePolarity,Negative*
G04*
G01*
G75*
G04:AMPARAMS|DCode=37|XSize=47.37mil|YSize=102.49mil|CornerRadius=13.84mil|HoleSize=0mil|Usage=FLASHONLY|Rotation=180.000|XOffset=0mil|YOffset=0mil|HoleType=Round|Shape=RoundedRectangle|*
%AMROUNDEDRECTD37*
21,1,0.04737,0.07480,0,0,180.0*
21,1,0.01968,0.10249,0,0,180.0*
1,1,0.02769,-0.00984,0.03740*
1,1,0.02769,0.00984,0.03740*
1,1,0.02769,0.00984,-0.03740*
1,1,0.02769,-0.00984,-0.03740*
%
%ADD37ROUNDEDRECTD37*%
G04:AMPARAMS|DCode=38|XSize=137.92mil|YSize=102.49mil|CornerRadius=18.17mil|HoleSize=0mil|Usage=FLASHONLY|Rotation=180.000|XOffset=0mil|YOffset=0mil|HoleType=Round|Shape=RoundedRectangle|*
%AMROUNDEDRECTD38*
21,1,0.13792,0.06614,0,0,180.0*
21,1,0.10158,0.10249,0,0,180.0*
1,1,0.03635,-0.05079,0.03307*
1,1,0.03635,0.05079,0.03307*
1,1,0.03635,0.05079,-0.03307*
1,1,0.03635,-0.05079,-0.03307*
%
%ADD38ROUNDEDRECTD38*%
%ADD39R,0.06706X0.05918*%
%ADD40R,0.05918X0.06706*%
%ADD41R,0.04500X0.04800*%
G04:AMPARAMS|DCode=42|XSize=31.62mil|YSize=67.06mil|CornerRadius=9.91mil|HoleSize=0mil|Usage=FLASHONLY|Rotation=180.000|XOffset=0mil|YOffset=0mil|HoleType=Round|Shape=RoundedRectangle|*
%AMROUNDEDRECTD42*
21,1,0.03162,0.04724,0,0,180.0*
21,1,0.01181,0.06706,0,0,180.0*
1,1,0.01981,-0.00591,0.02362*
1,1,0.01981,0.00591,0.02362*
1,1,0.01981,0.00591,-0.02362*
1,1,0.01981,-0.00591,-0.02362*
%
%ADD42ROUNDEDRECTD42*%
%ADD43R,0.04800X0.04500*%
G04:AMPARAMS|DCode=44|XSize=61.15mil|YSize=51.31mil|CornerRadius=14.83mil|HoleSize=0mil|Usage=FLASHONLY|Rotation=180.000|XOffset=0mil|YOffset=0mil|HoleType=Round|Shape=RoundedRectangle|*
%AMROUNDEDRECTD44*
21,1,0.06115,0.02165,0,0,180.0*
21,1,0.03150,0.05131,0,0,180.0*
1,1,0.02965,-0.01575,0.01083*
1,1,0.02965,0.01575,0.01083*
1,1,0.02965,0.01575,-0.01083*
1,1,0.02965,-0.01575,-0.01083*
%
%ADD44ROUNDEDRECTD44*%
%ADD45R,0.01560X0.05060*%
G04:AMPARAMS|DCode=46|XSize=55.24mil|YSize=31.62mil|CornerRadius=9.91mil|HoleSize=0mil|Usage=FLASHONLY|Rotation=0.000|XOffset=0mil|YOffset=0mil|HoleType=Round|Shape=RoundedRectangle|*
%AMROUNDEDRECTD46*
21,1,0.05524,0.01181,0,0,0.0*
21,1,0.03543,0.03162,0,0,0.0*
1,1,0.01981,0.01772,-0.00591*
1,1,0.01981,-0.01772,-0.00591*
1,1,0.01981,-0.01772,0.00591*
1,1,0.01981,0.01772,0.00591*
%
%ADD46ROUNDEDRECTD46*%
G04:AMPARAMS|DCode=47|XSize=31.62mil|YSize=67.06mil|CornerRadius=9.91mil|HoleSize=0mil|Usage=FLASHONLY|Rotation=90.000|XOffset=0mil|YOffset=0mil|HoleType=Round|Shape=RoundedRectangle|*
%AMROUNDEDRECTD47*
21,1,0.03162,0.04724,0,0,90.0*
21,1,0.01181,0.06706,0,0,90.0*
1,1,0.01981,0.02362,0.00591*
1,1,0.01981,0.02362,-0.00591*
1,1,0.01981,-0.02362,-0.00591*
1,1,0.01981,-0.02362,0.00591*
%
%ADD47ROUNDEDRECTD47*%
G04:AMPARAMS|DCode=48|XSize=78.87mil|YSize=78.87mil|CornerRadius=21.72mil|HoleSize=0mil|Usage=FLASHONLY|Rotation=90.000|XOffset=0mil|YOffset=0mil|HoleType=Round|Shape=RoundedRectangle|*
%AMROUNDEDRECTD48*
21,1,0.07887,0.03543,0,0,90.0*
21,1,0.03543,0.07887,0,0,90.0*
1,1,0.04343,0.01772,0.01772*
1,1,0.04343,0.01772,-0.01772*
1,1,0.04343,-0.01772,-0.01772*
1,1,0.04343,-0.01772,0.01772*
%
%ADD48ROUNDEDRECTD48*%
G04:AMPARAMS|DCode=49|XSize=19.81mil|YSize=19.81mil|CornerRadius=6.95mil|HoleSize=0mil|Usage=FLASHONLY|Rotation=90.000|XOffset=0mil|YOffset=0mil|HoleType=Round|Shape=RoundedRectangle|*
%AMROUNDEDRECTD49*
21,1,0.01981,0.00591,0,0,90.0*
21,1,0.00591,0.01981,0,0,90.0*
1,1,0.01391,0.00295,0.00295*
1,1,0.01391,0.00295,-0.00295*
1,1,0.01391,-0.00295,-0.00295*
1,1,0.01391,-0.00295,0.00295*
%
%ADD49ROUNDEDRECTD49*%
%ADD50R,0.01981X0.01981*%
G04:AMPARAMS|DCode=51|XSize=43.43mil|YSize=19.81mil|CornerRadius=6.95mil|HoleSize=0mil|Usage=FLASHONLY|Rotation=0.000|XOffset=0mil|YOffset=0mil|HoleType=Round|Shape=RoundedRectangle|*
%AMROUNDEDRECTD51*
21,1,0.04343,0.00591,0,0,0.0*
21,1,0.02953,0.01981,0,0,0.0*
1,1,0.01391,0.01476,-0.00295*
1,1,0.01391,-0.01476,-0.00295*
1,1,0.01391,-0.01476,0.00295*
1,1,0.01391,0.01476,0.00295*
%
%ADD51ROUNDEDRECTD51*%
G04:AMPARAMS|DCode=52|XSize=43.43mil|YSize=19.81mil|CornerRadius=6.95mil|HoleSize=0mil|Usage=FLASHONLY|Rotation=270.000|XOffset=0mil|YOffset=0mil|HoleType=Round|Shape=RoundedRectangle|*
%AMROUNDEDRECTD52*
21,1,0.04343,0.00591,0,0,270.0*
21,1,0.02953,0.01981,0,0,270.0*
1,1,0.01391,-0.00295,-0.01476*
1,1,0.01391,-0.00295,0.01476*
1,1,0.01391,0.00295,0.01476*
1,1,0.01391,0.00295,-0.01476*
%
%ADD52ROUNDEDRECTD52*%
%ADD53R,0.05524X0.05524*%
%ADD54R,0.05060X0.01560*%
G04:AMPARAMS|DCode=55|XSize=31.62mil|YSize=65.09mil|CornerRadius=9.91mil|HoleSize=0mil|Usage=FLASHONLY|Rotation=90.000|XOffset=0mil|YOffset=0mil|HoleType=Round|Shape=RoundedRectangle|*
%AMROUNDEDRECTD55*
21,1,0.03162,0.04528,0,0,90.0*
21,1,0.01181,0.06509,0,0,90.0*
1,1,0.01981,0.02264,0.00591*
1,1,0.01981,0.02264,-0.00591*
1,1,0.01981,-0.02264,-0.00591*
1,1,0.01981,-0.02264,0.00591*
%
%ADD55ROUNDEDRECTD55*%
G04:AMPARAMS|DCode=56|XSize=106.42mil|YSize=86.74mil|CornerRadius=23.68mil|HoleSize=0mil|Usage=FLASHONLY|Rotation=90.000|XOffset=0mil|YOffset=0mil|HoleType=Round|Shape=RoundedRectangle|*
%AMROUNDEDRECTD56*
21,1,0.10642,0.03937,0,0,90.0*
21,1,0.05906,0.08674,0,0,90.0*
1,1,0.04737,0.01968,0.02953*
1,1,0.04737,0.01968,-0.02953*
1,1,0.04737,-0.01968,-0.02953*
1,1,0.04737,-0.01968,0.02953*
%
%ADD56ROUNDEDRECTD56*%
G04:AMPARAMS|DCode=57|XSize=98.55mil|YSize=27.69mil|CornerRadius=8.92mil|HoleSize=0mil|Usage=FLASHONLY|Rotation=90.000|XOffset=0mil|YOffset=0mil|HoleType=Round|Shape=RoundedRectangle|*
%AMROUNDEDRECTD57*
21,1,0.09855,0.00984,0,0,90.0*
21,1,0.08071,0.02769,0,0,90.0*
1,1,0.01784,0.00492,0.04035*
1,1,0.01784,0.00492,-0.04035*
1,1,0.01784,-0.00492,-0.04035*
1,1,0.01784,-0.00492,0.04035*
%
%ADD57ROUNDEDRECTD57*%
G04:AMPARAMS|DCode=58|XSize=33.59mil|YSize=59.18mil|CornerRadius=10.4mil|HoleSize=0mil|Usage=FLASHONLY|Rotation=180.000|XOffset=0mil|YOffset=0mil|HoleType=Round|Shape=RoundedRectangle|*
%AMROUNDEDRECTD58*
21,1,0.03359,0.03839,0,0,180.0*
21,1,0.01280,0.05918,0,0,180.0*
1,1,0.02080,-0.00640,0.01919*
1,1,0.02080,0.00640,0.01919*
1,1,0.02080,0.00640,-0.01919*
1,1,0.02080,-0.00640,-0.01919*
%
%ADD58ROUNDEDRECTD58*%
%ADD59R,0.10249X0.10249*%
%ADD60C,0.10249*%
%ADD61C,0.05000*%
%ADD62C,0.16548*%
G04:AMPARAMS|DCode=63|XSize=67.06mil|YSize=145.8mil|CornerRadius=18.76mil|HoleSize=0mil|Usage=FLASHONLY|Rotation=0.000|XOffset=0mil|YOffset=0mil|HoleType=Round|Shape=RoundedRectangle|*
%AMROUNDEDRECTD63*
21,1,0.06706,0.10827,0,0,0.0*
21,1,0.02953,0.14580,0,0,0.0*
1,1,0.03753,0.01476,-0.05413*
1,1,0.03753,-0.01476,-0.05413*
1,1,0.03753,-0.01476,0.05413*
1,1,0.03753,0.01476,0.05413*
%
%ADD63ROUNDEDRECTD63*%
G04:AMPARAMS|DCode=64|XSize=67.06mil|YSize=145.8mil|CornerRadius=18.76mil|HoleSize=0mil|Usage=FLASHONLY|Rotation=270.000|XOffset=0mil|YOffset=0mil|HoleType=Round|Shape=RoundedRectangle|*
%AMROUNDEDRECTD64*
21,1,0.06706,0.10827,0,0,270.0*
21,1,0.02953,0.14580,0,0,270.0*
1,1,0.03753,-0.05413,-0.01476*
1,1,0.03753,-0.05413,0.01476*
1,1,0.03753,0.05413,0.01476*
1,1,0.03753,0.05413,-0.01476*
%
%ADD64ROUNDEDRECTD64*%
G04:AMPARAMS|DCode=65|XSize=67.06mil|YSize=165.48mil|CornerRadius=18.76mil|HoleSize=0mil|Usage=FLASHONLY|Rotation=90.000|XOffset=0mil|YOffset=0mil|HoleType=Round|Shape=RoundedRectangle|*
%AMROUNDEDRECTD65*
21,1,0.06706,0.12795,0,0,90.0*
21,1,0.02953,0.16548,0,0,90.0*
1,1,0.03753,0.06398,0.01476*
1,1,0.03753,0.06398,-0.01476*
1,1,0.03753,-0.06398,-0.01476*
1,1,0.03753,-0.06398,0.01476*
%
%ADD65ROUNDEDRECTD65*%
%ADD66C,0.06312*%
D37*
X86575Y85720D02*
D03*
X95630D02*
D03*
X104685D02*
D03*
D38*
X95630Y108555D02*
D03*
D39*
X96280Y59496D02*
D03*
Y50834D02*
D03*
X135039Y93307D02*
D03*
Y101969D02*
D03*
D40*
X72047Y145866D02*
D03*
X63386D02*
D03*
X181169Y107500D02*
D03*
X172508D02*
D03*
X181169Y121000D02*
D03*
X172508D02*
D03*
D41*
X70867Y134055D02*
D03*
X64566D02*
D03*
X190552Y194882D02*
D03*
X184252D02*
D03*
X190551Y188189D02*
D03*
X184251D02*
D03*
X190552Y181496D02*
D03*
X184252D02*
D03*
X150839Y253740D02*
D03*
X144539D02*
D03*
Y261221D02*
D03*
X150839D02*
D03*
Y180905D02*
D03*
X144539D02*
D03*
Y188386D02*
D03*
X150839D02*
D03*
X203937Y94193D02*
D03*
X210237D02*
D03*
X150839Y246654D02*
D03*
X144539D02*
D03*
Y239173D02*
D03*
X150839D02*
D03*
Y232077D02*
D03*
X144539D02*
D03*
Y224597D02*
D03*
X150839D02*
D03*
Y217539D02*
D03*
X144539D02*
D03*
X150839Y202953D02*
D03*
X144539D02*
D03*
Y195473D02*
D03*
X150839D02*
D03*
Y173819D02*
D03*
X144539D02*
D03*
Y166339D02*
D03*
X150839D02*
D03*
X74410Y181102D02*
D03*
X68110D02*
D03*
X74410Y188976D02*
D03*
X68110D02*
D03*
X74410Y196850D02*
D03*
X68110D02*
D03*
Y204724D02*
D03*
X74410D02*
D03*
X144539Y210039D02*
D03*
X150839D02*
D03*
X190552Y227953D02*
D03*
X184252D02*
D03*
X190552Y221091D02*
D03*
X184252D02*
D03*
X190552Y214173D02*
D03*
X184252D02*
D03*
X184252Y236440D02*
D03*
X190552D02*
D03*
Y242741D02*
D03*
X184252D02*
D03*
D42*
X64567Y106102D02*
D03*
X68307Y98622D02*
D03*
X60827D02*
D03*
D43*
X68400Y89075D02*
D03*
Y82775D02*
D03*
X60919D02*
D03*
Y89075D02*
D03*
X195276Y286024D02*
D03*
Y279724D02*
D03*
X202425D02*
D03*
Y286024D02*
D03*
X209575Y286095D02*
D03*
Y279795D02*
D03*
X171260Y286024D02*
D03*
Y279724D02*
D03*
X163976Y279795D02*
D03*
Y286095D02*
D03*
X156693Y286024D02*
D03*
Y279724D02*
D03*
X132677Y285630D02*
D03*
Y279330D02*
D03*
X125394Y279401D02*
D03*
Y285701D02*
D03*
X118110Y285630D02*
D03*
Y279330D02*
D03*
X209402Y250940D02*
D03*
Y257241D02*
D03*
X203902Y250940D02*
D03*
Y257241D02*
D03*
Y242741D02*
D03*
Y236440D02*
D03*
X209402Y242741D02*
D03*
Y236440D02*
D03*
X210902Y170940D02*
D03*
Y177241D02*
D03*
X204949D02*
D03*
Y170940D02*
D03*
X198996Y177241D02*
D03*
Y170940D02*
D03*
X179008Y88288D02*
D03*
Y94588D02*
D03*
X172508Y88288D02*
D03*
Y94588D02*
D03*
Y81988D02*
D03*
Y75688D02*
D03*
X179008D02*
D03*
Y81988D02*
D03*
X221260Y78166D02*
D03*
Y71866D02*
D03*
X215620D02*
D03*
Y78166D02*
D03*
X215748Y64567D02*
D03*
Y58267D02*
D03*
X221260D02*
D03*
Y64567D02*
D03*
X226772D02*
D03*
Y58267D02*
D03*
X124409Y223622D02*
D03*
Y229922D02*
D03*
X86279Y52015D02*
D03*
Y58315D02*
D03*
X123130Y94488D02*
D03*
Y100788D02*
D03*
X116130D02*
D03*
Y94488D02*
D03*
X107087Y181102D02*
D03*
Y174802D02*
D03*
X101575Y181102D02*
D03*
Y174802D02*
D03*
X91339Y181102D02*
D03*
Y174802D02*
D03*
X80842Y236830D02*
D03*
Y243130D02*
D03*
X74945Y236830D02*
D03*
Y243130D02*
D03*
X69047Y236830D02*
D03*
Y243130D02*
D03*
X63150D02*
D03*
Y236830D02*
D03*
X57252Y243130D02*
D03*
Y236830D02*
D03*
X51354Y243130D02*
D03*
Y236830D02*
D03*
X45457D02*
D03*
Y243130D02*
D03*
X39559D02*
D03*
Y236830D02*
D03*
X33661Y243111D02*
D03*
Y236811D02*
D03*
X116130Y82775D02*
D03*
Y89075D02*
D03*
X123130D02*
D03*
Y82775D02*
D03*
D44*
X190909Y306496D02*
D03*
X213941D02*
D03*
X190909Y294685D02*
D03*
X213941D02*
D03*
X152461Y306496D02*
D03*
X175492D02*
D03*
X152461Y294685D02*
D03*
X175492D02*
D03*
X113878Y306102D02*
D03*
X136909D02*
D03*
X113878Y294291D02*
D03*
X136909D02*
D03*
X124902Y145866D02*
D03*
X147933D02*
D03*
X124902Y134055D02*
D03*
X147933D02*
D03*
D45*
X109043Y190972D02*
D03*
X91327Y224437D02*
D03*
X93295D02*
D03*
X95264D02*
D03*
X97232D02*
D03*
X99201D02*
D03*
X101169D02*
D03*
X103138D02*
D03*
X105106D02*
D03*
X107075D02*
D03*
X109043D02*
D03*
X111012D02*
D03*
X112980D02*
D03*
Y190972D02*
D03*
X111012D02*
D03*
X107075D02*
D03*
X105106D02*
D03*
X103138D02*
D03*
X101169D02*
D03*
X99201D02*
D03*
X97232D02*
D03*
X95264D02*
D03*
X93295D02*
D03*
X91327D02*
D03*
D46*
X198425Y192520D02*
D03*
Y188189D02*
D03*
Y183858D02*
D03*
X210236D02*
D03*
Y188189D02*
D03*
Y192520D02*
D03*
X198425Y225421D02*
D03*
Y221091D02*
D03*
Y216760D02*
D03*
X210236D02*
D03*
Y221091D02*
D03*
Y225421D02*
D03*
D47*
X165157Y257480D02*
D03*
X157677Y253740D02*
D03*
Y261221D02*
D03*
X165157Y184646D02*
D03*
X157677Y180905D02*
D03*
Y188386D02*
D03*
Y246654D02*
D03*
Y239173D02*
D03*
X165157Y242913D02*
D03*
X157677Y232087D02*
D03*
Y224606D02*
D03*
X165157Y228346D02*
D03*
X157677Y217520D02*
D03*
Y210039D02*
D03*
X165157Y213779D02*
D03*
X157677Y202953D02*
D03*
Y195473D02*
D03*
X165157Y199213D02*
D03*
X157677Y173819D02*
D03*
Y166339D02*
D03*
X165157Y170079D02*
D03*
D48*
X202945Y76000D02*
D03*
D49*
X207866Y71079D02*
D03*
Y80921D02*
D03*
X198024Y71079D02*
D03*
D50*
Y80921D02*
D03*
D51*
X196843Y78953D02*
D03*
Y76984D02*
D03*
Y75016D02*
D03*
Y73047D02*
D03*
X209047D02*
D03*
Y75016D02*
D03*
Y76984D02*
D03*
Y78953D02*
D03*
D52*
X199992Y82102D02*
D03*
X201961D02*
D03*
X203929D02*
D03*
X205898D02*
D03*
Y69898D02*
D03*
X203929D02*
D03*
X201961D02*
D03*
X199992D02*
D03*
D53*
X134780Y60949D02*
D03*
Y48350D02*
D03*
X122855Y60949D02*
D03*
Y48350D02*
D03*
X110931Y60949D02*
D03*
Y48350D02*
D03*
D54*
X85421Y196878D02*
D03*
Y198846D02*
D03*
Y200815D02*
D03*
Y202783D02*
D03*
Y204752D02*
D03*
Y206720D02*
D03*
Y208689D02*
D03*
Y210658D02*
D03*
Y212626D02*
D03*
Y214595D02*
D03*
Y216563D02*
D03*
Y218531D02*
D03*
X118886D02*
D03*
Y216563D02*
D03*
Y214595D02*
D03*
Y212626D02*
D03*
Y210658D02*
D03*
Y208689D02*
D03*
Y206720D02*
D03*
Y204752D02*
D03*
Y202783D02*
D03*
Y200815D02*
D03*
Y198846D02*
D03*
Y196878D02*
D03*
D55*
X43114Y226980D02*
D03*
Y221980D02*
D03*
Y216980D02*
D03*
Y211980D02*
D03*
X64571Y226980D02*
D03*
Y221980D02*
D03*
Y216980D02*
D03*
Y211980D02*
D03*
D56*
X223031Y31693D02*
D03*
X187992D02*
D03*
Y10039D02*
D03*
X223031D02*
D03*
D57*
X211811Y31693D02*
D03*
X199213D02*
D03*
X208661D02*
D03*
X202362D02*
D03*
X205512D02*
D03*
D58*
X200984Y48031D02*
D03*
X204724D02*
D03*
X208465D02*
D03*
Y59055D02*
D03*
X200984D02*
D03*
X204724D02*
D03*
D59*
X105979Y18000D02*
D03*
D60*
X125664Y17500D02*
D03*
D61*
X225902Y267091D02*
D03*
Y257090D02*
D03*
X31653Y105669D02*
D03*
X21654Y195669D02*
D03*
X31653D02*
D03*
X21654Y185669D02*
D03*
X31653D02*
D03*
X21654Y175669D02*
D03*
X31653D02*
D03*
X21654Y165669D02*
D03*
X31653D02*
D03*
X21654Y155669D02*
D03*
X31653D02*
D03*
X21654Y145669D02*
D03*
X31653D02*
D03*
X21654Y135669D02*
D03*
X31653D02*
D03*
X21654Y125669D02*
D03*
X31653D02*
D03*
X21654Y115669D02*
D03*
X31653D02*
D03*
X21654Y105669D02*
D03*
Y95669D02*
D03*
X31653D02*
D03*
X21654Y85669D02*
D03*
X31653D02*
D03*
X85039Y300394D02*
D03*
X75039D02*
D03*
X65039D02*
D03*
X55039D02*
D03*
X45039D02*
D03*
X225902Y198591D02*
D03*
Y188591D02*
D03*
Y178591D02*
D03*
Y242590D02*
D03*
Y232591D02*
D03*
Y222590D02*
D03*
Y212591D02*
D03*
D62*
X232283Y303150D02*
D03*
X15748D02*
D03*
X232283Y133858D02*
D03*
X70866Y15748D02*
D03*
D63*
X44488Y43701D02*
D03*
D64*
X25984Y31890D02*
D03*
D65*
Y55512D02*
D03*
D66*
X196850Y21654D02*
D03*
X214173D02*
D03*
M02*
