G04*
G04 #@! TF.GenerationSoftware,Altium Limited,Altium Designer,24.3.1 (35)*
G04*
G04 Layer_Color=16711935*
%FSLAX25Y25*%
%MOIN*%
G70*
G04*
G04 #@! TF.SameCoordinates,CBDEA9DE-FB5E-4B32-9C3F-323BEE311ABC*
G04*
G04*
G04 #@! TF.FilePolarity,Negative*
G04*
G01*
G75*
%ADD59R,0.10249X0.10249*%
%ADD60C,0.10249*%
%ADD61C,0.05000*%
%ADD62C,0.16548*%
G04:AMPARAMS|DCode=63|XSize=67.06mil|YSize=145.8mil|CornerRadius=18.76mil|HoleSize=0mil|Usage=FLASHONLY|Rotation=0.000|XOffset=0mil|YOffset=0mil|HoleType=Round|Shape=RoundedRectangle|*
%AMROUNDEDRECTD63*
21,1,0.06706,0.10827,0,0,0.0*
21,1,0.02953,0.14580,0,0,0.0*
1,1,0.03753,0.01476,-0.05413*
1,1,0.03753,-0.01476,-0.05413*
1,1,0.03753,-0.01476,0.05413*
1,1,0.03753,0.01476,0.05413*
%
%ADD63ROUNDEDRECTD63*%
G04:AMPARAMS|DCode=64|XSize=67.06mil|YSize=145.8mil|CornerRadius=18.76mil|HoleSize=0mil|Usage=FLASHONLY|Rotation=270.000|XOffset=0mil|YOffset=0mil|HoleType=Round|Shape=RoundedRectangle|*
%AMROUNDEDRECTD64*
21,1,0.06706,0.10827,0,0,270.0*
21,1,0.02953,0.14580,0,0,270.0*
1,1,0.03753,-0.05413,-0.01476*
1,1,0.03753,-0.05413,0.01476*
1,1,0.03753,0.05413,0.01476*
1,1,0.03753,0.05413,-0.01476*
%
%ADD64ROUNDEDRECTD64*%
G04:AMPARAMS|DCode=65|XSize=67.06mil|YSize=165.48mil|CornerRadius=18.76mil|HoleSize=0mil|Usage=FLASHONLY|Rotation=90.000|XOffset=0mil|YOffset=0mil|HoleType=Round|Shape=RoundedRectangle|*
%AMROUNDEDRECTD65*
21,1,0.06706,0.12795,0,0,90.0*
21,1,0.02953,0.16548,0,0,90.0*
1,1,0.03753,0.06398,0.01476*
1,1,0.03753,0.06398,-0.01476*
1,1,0.03753,-0.06398,-0.01476*
1,1,0.03753,-0.06398,0.01476*
%
%ADD65ROUNDEDRECTD65*%
%ADD66C,0.06312*%
D59*
X105979Y18000D02*
D03*
D60*
X125664Y17500D02*
D03*
D61*
X225902Y267091D02*
D03*
Y257090D02*
D03*
X31653Y105669D02*
D03*
X21654Y195669D02*
D03*
X31653D02*
D03*
X21654Y185669D02*
D03*
X31653D02*
D03*
X21654Y175669D02*
D03*
X31653D02*
D03*
X21654Y165669D02*
D03*
X31653D02*
D03*
X21654Y155669D02*
D03*
X31653D02*
D03*
X21654Y145669D02*
D03*
X31653D02*
D03*
X21654Y135669D02*
D03*
X31653D02*
D03*
X21654Y125669D02*
D03*
X31653D02*
D03*
X21654Y115669D02*
D03*
X31653D02*
D03*
X21654Y105669D02*
D03*
Y95669D02*
D03*
X31653D02*
D03*
X21654Y85669D02*
D03*
X31653D02*
D03*
X85039Y300394D02*
D03*
X75039D02*
D03*
X65039D02*
D03*
X55039D02*
D03*
X45039D02*
D03*
X225902Y198591D02*
D03*
Y188591D02*
D03*
Y178591D02*
D03*
Y242590D02*
D03*
Y232591D02*
D03*
Y222590D02*
D03*
Y212591D02*
D03*
D62*
X232283Y303150D02*
D03*
X15748D02*
D03*
X232283Y133858D02*
D03*
X70866Y15748D02*
D03*
D63*
X44488Y43701D02*
D03*
D64*
X25984Y31890D02*
D03*
D65*
Y55512D02*
D03*
D66*
X196850Y21654D02*
D03*
X214173D02*
D03*
M02*
